<?xml version="1.0" encoding="UTF-8"?>
<svg width="175.41" height="175.41" viewBox="0 0 175.41203 216.92729" xmlns="http://www.w3.org/2000/svg">
 <g transform="matrix(1.9047 0 0 1.9047 -193.31 35.365)" stroke="#000" stroke-linecap="round">
  <path d="m108.3 58.293h78.477c3.0658 0 5.534 2.4682 5.534 5.534v24.687c0 3.0658-2.4682 5.534-5.534 5.534h-78.477c-3.0658 0-5.534-2.4682-5.534-5.534v-24.687c0-3.0658 2.4682-5.534 5.534-5.534z" fill="none" stroke-width="2.5483"/>
  <path transform="translate(0,-.22136)" d="m117.1 76.502c0 2.9952-2.4281 5.4233-5.4233 5.4233s-5.4233-2.4281-5.4233-5.4233 2.4281-5.4233 5.4233-5.4233 5.4233 2.4281 5.4233 5.4233z" fill="none" stroke-width="2"/>
  <path transform="translate(72.384 -.22136)" d="m117.1 76.502c0 2.9952-2.4281 5.4233-5.4233 5.4233s-5.4233-2.4281-5.4233-5.4233 2.4281-5.4233 5.4233-5.4233 5.4233 2.4281 5.4233 5.4233z" fill="none" stroke-width="2"/>
  <path d="m129.27 63.332h38.516c3.0658 0 5.534 2.4682 5.534 5.534l-2.2136 14.831c0 3.0658-2.4682 5.534-5.534 5.534l-34.753-0.22136c-3.0658 0-5.534-2.4682-5.534-5.534l-1.5495-14.61c0-3.0658 2.4682-5.534 5.534-5.534z" fill="none" stroke-width="2"/>
  <path d="m133.26 71.301c0 0.85577-0.69374 1.5495-1.5495 1.5495s-1.5495-0.69374-1.5495-1.5495 0.69374-1.5495 1.5495-1.5495 1.5495 0.69374 1.5495 1.5495z" stroke-width="2"/>
  <path transform="translate(8.1903)" d="m133.26 71.301c0 0.85577-0.69374 1.5495-1.5495 1.5495s-1.5495-0.69374-1.5495-1.5495 0.69374-1.5495 1.5495-1.5495 1.5495 0.69374 1.5495 1.5495z" stroke-width="2"/>
  <path transform="translate(15.606)" d="m133.26 71.301c0 0.85577-0.69374 1.5495-1.5495 1.5495s-1.5495-0.69374-1.5495-1.5495 0.69374-1.5495 1.5495-1.5495 1.5495 0.69374 1.5495 1.5495z" stroke-width="2"/>
  <path transform="translate(23.907)" d="m133.26 71.301c0 0.85577-0.69374 1.5495-1.5495 1.5495s-1.5495-0.69374-1.5495-1.5495 0.69374-1.5495 1.5495-1.5495 1.5495 0.69374 1.5495 1.5495z" stroke-width="2"/>
  <path transform="translate(31.876)" d="m133.26 71.301c0 0.85577-0.69374 1.5495-1.5495 1.5495s-1.5495-0.69374-1.5495-1.5495 0.69374-1.5495 1.5495-1.5495 1.5495 0.69374 1.5495 1.5495z" stroke-width="2"/>
  <path transform="translate(4.6485 9.0757)" d="m133.26 71.301c0 0.85577-0.69374 1.5495-1.5495 1.5495s-1.5495-0.69374-1.5495-1.5495 0.69374-1.5495 1.5495-1.5495 1.5495 0.69374 1.5495 1.5495z" stroke-width="2"/>
  <path transform="translate(12.064 9.0757)" d="m133.26 71.301c0 0.85577-0.69374 1.5495-1.5495 1.5495s-1.5495-0.69374-1.5495-1.5495 0.69374-1.5495 1.5495-1.5495 1.5495 0.69374 1.5495 1.5495z" stroke-width="2"/>
  <path transform="translate(20.365 9.0757)" d="m133.26 71.301c0 0.85577-0.69374 1.5495-1.5495 1.5495s-1.5495-0.69374-1.5495-1.5495 0.69374-1.5495 1.5495-1.5495 1.5495 0.69374 1.5495 1.5495z" stroke-width="2"/>
  <path transform="translate(28.334 9.0757)" d="m133.26 71.301c0 0.85577-0.69374 1.5495-1.5495 1.5495s-1.5495-0.69374-1.5495-1.5495 0.69374-1.5495 1.5495-1.5495 1.5495 0.69374 1.5495 1.5495z" stroke-width="2"/>
 </g>
</svg>
