<?xml version="1.0" encoding="UTF-8"?>
<svg viewBox="0 0 431.1875 94.8125" xmlns="http://www.w3.org/2000/svg">
 <g transform="translate(-143.09 -466.12)">
  <path d="m143.09 466.12v48.406c4.3967 0.8989 7.5938 3.5621 7.5938 6.6875s-3.1971 5.7573-7.5938 6.6562v33.062h84.781v-8.2188c0-2.1056 1.7069-3.7812 3.8125-3.7812h0.6875c2.1056 0 3.8125 1.6757 3.8125 3.7812v8.2188h117.31v-8.2188c0-2.1056 1.6757-3.7812 3.7812-3.7812h0.71875c2.1056 0 3.7812 1.6757 3.7812 3.7812v8.2188h212.5v-33.031c-5.0927-0.58321-8.9688-3.4626-8.9688-6.9062s3.8764-6.2916 8.9688-6.875v-48h-431.19zm5.5312 86.438c1.7132-2e-5 3.125 1.3806 3.125 3.0938s-1.4118 3.0938-3.125 3.0938-3.0938-1.3806-3.0938-3.0938 1.3806-3.0938 3.0938-3.0938zm421.06 0c1.7132-2e-5 3.0938 1.3806 3.0938 3.0938s-1.3806 3.0938-3.0938 3.0938-3.125-1.3806-3.125-3.0938 1.4118-3.0938 3.125-3.0938z" fill="#2d825b" fill-rule="evenodd"/>
  <g transform="translate(-1.4702 228.88)">
   <path d="m162.63 244.24h32.678v62.932h-32.678z"/>
   <g transform="translate(0 -.012934)" fill="#e6e7e8">
    <path d="m158.03 246.08h5.5032v1.7857h-5.5032z"/>
    <path d="m158.03 248.95h5.5032v1.7857h-5.5032z"/>
    <path d="m158.03 251.83h5.5032v1.7857h-5.5032z"/>
    <path d="m158.03 254.7h5.5032v1.7857h-5.5032z"/>
    <path d="m158.03 257.58h5.5032v1.7857h-5.5032z"/>
    <path d="m158.18 260.45h5.5032v1.7857h-5.5032z"/>
    <path d="m158.18 263.33h5.5032v1.7857h-5.5032z"/>
    <path d="m158.18 266.2h5.5032v1.7857h-5.5032z"/>
    <path d="m158.18 269.08h5.5032v1.7857h-5.5032z"/>
    <path d="m158.18 271.95h5.5032v1.7857h-5.5032z"/>
    <path d="m158.18 274.83h5.5032v1.7857h-5.5032z"/>
    <path d="m158.18 277.7h5.5032v1.7857h-5.5032z"/>
    <path d="m158.18 280.58h5.5032v1.7857h-5.5032z"/>
    <path d="m158.18 283.45h5.5032v1.7857h-5.5032z"/>
    <path d="m158.18 286.33h5.5032v1.7857h-5.5032z"/>
    <path d="m158.18 289.2h5.5032v1.7857h-5.5032z"/>
    <path d="m158.18 292.08h5.5032v1.7857h-5.5032z"/>
    <path d="m158.18 294.95h5.5032v1.7857h-5.5032z"/>
    <path d="m158.18 297.83h5.5032v1.7857h-5.5032z"/>
    <path d="m158.18 300.7h5.5032v1.7857h-5.5032z"/>
    <path d="m158.18 303.58h5.5032v1.7857h-5.5032z"/>
   </g>
   <g transform="translate(36.117 -.012934)" fill="#e6e7e8">
    <path d="m158.03 246.08h5.5032v1.7857h-5.5032z"/>
    <path d="m158.03 248.95h5.5032v1.7857h-5.5032z"/>
    <path d="m158.03 251.83h5.5032v1.7857h-5.5032z"/>
    <path d="m158.03 254.7h5.5032v1.7857h-5.5032z"/>
    <path d="m158.03 257.58h5.5032v1.7857h-5.5032z"/>
    <path d="m158.18 260.45h5.5032v1.7857h-5.5032z"/>
    <path d="m158.18 263.33h5.5032v1.7857h-5.5032z"/>
    <path d="m158.18 266.2h5.5032v1.7857h-5.5032z"/>
    <path d="m158.18 269.08h5.5032v1.7857h-5.5032z"/>
    <path d="m158.18 271.95h5.5032v1.7857h-5.5032z"/>
    <path d="m158.18 274.83h5.5032v1.7857h-5.5032z"/>
    <path d="m158.18 277.7h5.5032v1.7857h-5.5032z"/>
    <path d="m158.18 280.58h5.5032v1.7857h-5.5032z"/>
    <path d="m158.18 283.45h5.5032v1.7857h-5.5032z"/>
    <path d="m158.18 286.33h5.5032v1.7857h-5.5032z"/>
    <path d="m158.18 289.2h5.5032v1.7857h-5.5032z"/>
    <path d="m158.18 292.08h5.5032v1.7857h-5.5032z"/>
    <path d="m158.18 294.95h5.5032v1.7857h-5.5032z"/>
    <path d="m158.18 297.83h5.5032v1.7857h-5.5032z"/>
    <path d="m158.18 300.7h5.5032v1.7857h-5.5032z"/>
    <path d="m158.18 303.58h5.5032v1.7857h-5.5032z"/>
   </g>
  </g>
  <g transform="translate(44.614 228.88)">
   <path d="m162.63 244.24h32.678v62.932h-32.678z"/>
   <g transform="translate(0 -.012934)" fill="#e6e7e8">
    <path d="m158.03 246.08h5.5032v1.7857h-5.5032z"/>
    <path d="m158.03 248.95h5.5032v1.7857h-5.5032z"/>
    <path d="m158.03 251.83h5.5032v1.7857h-5.5032z"/>
    <path d="m158.03 254.7h5.5032v1.7857h-5.5032z"/>
    <path d="m158.03 257.58h5.5032v1.7857h-5.5032z"/>
    <path d="m158.18 260.45h5.5032v1.7857h-5.5032z"/>
    <path d="m158.18 263.33h5.5032v1.7857h-5.5032z"/>
    <path d="m158.18 266.2h5.5032v1.7857h-5.5032z"/>
    <path d="m158.18 269.08h5.5032v1.7857h-5.5032z"/>
    <path d="m158.18 271.95h5.5032v1.7857h-5.5032z"/>
    <path d="m158.18 274.83h5.5032v1.7857h-5.5032z"/>
    <path d="m158.18 277.7h5.5032v1.7857h-5.5032z"/>
    <path d="m158.18 280.58h5.5032v1.7857h-5.5032z"/>
    <path d="m158.18 283.45h5.5032v1.7857h-5.5032z"/>
    <path d="m158.18 286.33h5.5032v1.7857h-5.5032z"/>
    <path d="m158.18 289.2h5.5032v1.7857h-5.5032z"/>
    <path d="m158.18 292.08h5.5032v1.7857h-5.5032z"/>
    <path d="m158.18 294.95h5.5032v1.7857h-5.5032z"/>
    <path d="m158.18 297.83h5.5032v1.7857h-5.5032z"/>
    <path d="m158.18 300.7h5.5032v1.7857h-5.5032z"/>
    <path d="m158.18 303.58h5.5032v1.7857h-5.5032z"/>
   </g>
   <g transform="translate(36.117 -.012934)" fill="#e6e7e8">
    <path d="m158.03 246.08h5.5032v1.7857h-5.5032z"/>
    <path d="m158.03 248.95h5.5032v1.7857h-5.5032z"/>
    <path d="m158.03 251.83h5.5032v1.7857h-5.5032z"/>
    <path d="m158.03 254.7h5.5032v1.7857h-5.5032z"/>
    <path d="m158.03 257.58h5.5032v1.7857h-5.5032z"/>
    <path d="m158.18 260.45h5.5032v1.7857h-5.5032z"/>
    <path d="m158.18 263.33h5.5032v1.7857h-5.5032z"/>
    <path d="m158.18 266.2h5.5032v1.7857h-5.5032z"/>
    <path d="m158.18 269.08h5.5032v1.7857h-5.5032z"/>
    <path d="m158.18 271.95h5.5032v1.7857h-5.5032z"/>
    <path d="m158.18 274.83h5.5032v1.7857h-5.5032z"/>
    <path d="m158.18 277.7h5.5032v1.7857h-5.5032z"/>
    <path d="m158.18 280.58h5.5032v1.7857h-5.5032z"/>
    <path d="m158.18 283.45h5.5032v1.7857h-5.5032z"/>
    <path d="m158.18 286.33h5.5032v1.7857h-5.5032z"/>
    <path d="m158.18 289.2h5.5032v1.7857h-5.5032z"/>
    <path d="m158.18 292.08h5.5032v1.7857h-5.5032z"/>
    <path d="m158.18 294.95h5.5032v1.7857h-5.5032z"/>
    <path d="m158.18 297.83h5.5032v1.7857h-5.5032z"/>
    <path d="m158.18 300.7h5.5032v1.7857h-5.5032z"/>
    <path d="m158.18 303.58h5.5032v1.7857h-5.5032z"/>
   </g>
  </g>
  <g transform="translate(90.114 228.88)">
   <path d="m162.63 244.24h32.678v62.932h-32.678z"/>
   <g transform="translate(0 -.012934)" fill="#e6e7e8">
    <path d="m158.03 246.08h5.5032v1.7857h-5.5032z"/>
    <path d="m158.03 248.95h5.5032v1.7857h-5.5032z"/>
    <path d="m158.03 251.83h5.5032v1.7857h-5.5032z"/>
    <path d="m158.03 254.7h5.5032v1.7857h-5.5032z"/>
    <path d="m158.03 257.58h5.5032v1.7857h-5.5032z"/>
    <path d="m158.18 260.45h5.5032v1.7857h-5.5032z"/>
    <path d="m158.18 263.33h5.5032v1.7857h-5.5032z"/>
    <path d="m158.18 266.2h5.5032v1.7857h-5.5032z"/>
    <path d="m158.18 269.08h5.5032v1.7857h-5.5032z"/>
    <path d="m158.18 271.95h5.5032v1.7857h-5.5032z"/>
    <path d="m158.18 274.83h5.5032v1.7857h-5.5032z"/>
    <path d="m158.18 277.7h5.5032v1.7857h-5.5032z"/>
    <path d="m158.18 280.58h5.5032v1.7857h-5.5032z"/>
    <path d="m158.18 283.45h5.5032v1.7857h-5.5032z"/>
    <path d="m158.18 286.33h5.5032v1.7857h-5.5032z"/>
    <path d="m158.18 289.2h5.5032v1.7857h-5.5032z"/>
    <path d="m158.18 292.08h5.5032v1.7857h-5.5032z"/>
    <path d="m158.18 294.95h5.5032v1.7857h-5.5032z"/>
    <path d="m158.18 297.83h5.5032v1.7857h-5.5032z"/>
    <path d="m158.18 300.7h5.5032v1.7857h-5.5032z"/>
    <path d="m158.18 303.58h5.5032v1.7857h-5.5032z"/>
   </g>
   <g transform="translate(36.117 -.012934)" fill="#e6e7e8">
    <path d="m158.03 246.08h5.5032v1.7857h-5.5032z"/>
    <path d="m158.03 248.95h5.5032v1.7857h-5.5032z"/>
    <path d="m158.03 251.83h5.5032v1.7857h-5.5032z"/>
    <path d="m158.03 254.7h5.5032v1.7857h-5.5032z"/>
    <path d="m158.03 257.58h5.5032v1.7857h-5.5032z"/>
    <path d="m158.18 260.45h5.5032v1.7857h-5.5032z"/>
    <path d="m158.18 263.33h5.5032v1.7857h-5.5032z"/>
    <path d="m158.18 266.2h5.5032v1.7857h-5.5032z"/>
    <path d="m158.18 269.08h5.5032v1.7857h-5.5032z"/>
    <path d="m158.18 271.95h5.5032v1.7857h-5.5032z"/>
    <path d="m158.18 274.83h5.5032v1.7857h-5.5032z"/>
    <path d="m158.18 277.7h5.5032v1.7857h-5.5032z"/>
    <path d="m158.18 280.58h5.5032v1.7857h-5.5032z"/>
    <path d="m158.18 283.45h5.5032v1.7857h-5.5032z"/>
    <path d="m158.18 286.33h5.5032v1.7857h-5.5032z"/>
    <path d="m158.18 289.2h5.5032v1.7857h-5.5032z"/>
    <path d="m158.18 292.08h5.5032v1.7857h-5.5032z"/>
    <path d="m158.18 294.95h5.5032v1.7857h-5.5032z"/>
    <path d="m158.18 297.83h5.5032v1.7857h-5.5032z"/>
    <path d="m158.18 300.7h5.5032v1.7857h-5.5032z"/>
    <path d="m158.18 303.58h5.5032v1.7857h-5.5032z"/>
   </g>
  </g>
  <g transform="translate(135.11 228.88)">
   <path d="m162.63 244.24h32.678v62.932h-32.678z"/>
   <g transform="translate(0 -.012934)" fill="#e6e7e8">
    <path d="m158.03 246.08h5.5032v1.7857h-5.5032z"/>
    <path d="m158.03 248.95h5.5032v1.7857h-5.5032z"/>
    <path d="m158.03 251.83h5.5032v1.7857h-5.5032z"/>
    <path d="m158.03 254.7h5.5032v1.7857h-5.5032z"/>
    <path d="m158.03 257.58h5.5032v1.7857h-5.5032z"/>
    <path d="m158.18 260.45h5.5032v1.7857h-5.5032z"/>
    <path d="m158.18 263.33h5.5032v1.7857h-5.5032z"/>
    <path d="m158.18 266.2h5.5032v1.7857h-5.5032z"/>
    <path d="m158.18 269.08h5.5032v1.7857h-5.5032z"/>
    <path d="m158.18 271.95h5.5032v1.7857h-5.5032z"/>
    <path d="m158.18 274.83h5.5032v1.7857h-5.5032z"/>
    <path d="m158.18 277.7h5.5032v1.7857h-5.5032z"/>
    <path d="m158.18 280.58h5.5032v1.7857h-5.5032z"/>
    <path d="m158.18 283.45h5.5032v1.7857h-5.5032z"/>
    <path d="m158.18 286.33h5.5032v1.7857h-5.5032z"/>
    <path d="m158.18 289.2h5.5032v1.7857h-5.5032z"/>
    <path d="m158.18 292.08h5.5032v1.7857h-5.5032z"/>
    <path d="m158.18 294.95h5.5032v1.7857h-5.5032z"/>
    <path d="m158.18 297.83h5.5032v1.7857h-5.5032z"/>
    <path d="m158.18 300.7h5.5032v1.7857h-5.5032z"/>
    <path d="m158.18 303.58h5.5032v1.7857h-5.5032z"/>
   </g>
   <g transform="translate(36.117 -.012934)" fill="#e6e7e8">
    <path d="m158.03 246.08h5.5032v1.7857h-5.5032z"/>
    <path d="m158.03 248.95h5.5032v1.7857h-5.5032z"/>
    <path d="m158.03 251.83h5.5032v1.7857h-5.5032z"/>
    <path d="m158.03 254.7h5.5032v1.7857h-5.5032z"/>
    <path d="m158.03 257.58h5.5032v1.7857h-5.5032z"/>
    <path d="m158.18 260.45h5.5032v1.7857h-5.5032z"/>
    <path d="m158.18 263.33h5.5032v1.7857h-5.5032z"/>
    <path d="m158.18 266.2h5.5032v1.7857h-5.5032z"/>
    <path d="m158.18 269.08h5.5032v1.7857h-5.5032z"/>
    <path d="m158.18 271.95h5.5032v1.7857h-5.5032z"/>
    <path d="m158.18 274.83h5.5032v1.7857h-5.5032z"/>
    <path d="m158.18 277.7h5.5032v1.7857h-5.5032z"/>
    <path d="m158.18 280.58h5.5032v1.7857h-5.5032z"/>
    <path d="m158.18 283.45h5.5032v1.7857h-5.5032z"/>
    <path d="m158.18 286.33h5.5032v1.7857h-5.5032z"/>
    <path d="m158.18 289.2h5.5032v1.7857h-5.5032z"/>
    <path d="m158.18 292.08h5.5032v1.7857h-5.5032z"/>
    <path d="m158.18 294.95h5.5032v1.7857h-5.5032z"/>
    <path d="m158.18 297.83h5.5032v1.7857h-5.5032z"/>
    <path d="m158.18 300.7h5.5032v1.7857h-5.5032z"/>
    <path d="m158.18 303.58h5.5032v1.7857h-5.5032z"/>
   </g>
  </g>
  <g transform="translate(223.32 228.88)">
   <path d="m162.63 244.24h32.678v62.932h-32.678z"/>
   <g transform="translate(0 -.012934)" fill="#e6e7e8">
    <path d="m158.03 246.08h5.5032v1.7857h-5.5032z"/>
    <path d="m158.03 248.95h5.5032v1.7857h-5.5032z"/>
    <path d="m158.03 251.83h5.5032v1.7857h-5.5032z"/>
    <path d="m158.03 254.7h5.5032v1.7857h-5.5032z"/>
    <path d="m158.03 257.58h5.5032v1.7857h-5.5032z"/>
    <path d="m158.18 260.45h5.5032v1.7857h-5.5032z"/>
    <path d="m158.18 263.33h5.5032v1.7857h-5.5032z"/>
    <path d="m158.18 266.2h5.5032v1.7857h-5.5032z"/>
    <path d="m158.18 269.08h5.5032v1.7857h-5.5032z"/>
    <path d="m158.18 271.95h5.5032v1.7857h-5.5032z"/>
    <path d="m158.18 274.83h5.5032v1.7857h-5.5032z"/>
    <path d="m158.18 277.7h5.5032v1.7857h-5.5032z"/>
    <path d="m158.18 280.58h5.5032v1.7857h-5.5032z"/>
    <path d="m158.18 283.45h5.5032v1.7857h-5.5032z"/>
    <path d="m158.18 286.33h5.5032v1.7857h-5.5032z"/>
    <path d="m158.18 289.2h5.5032v1.7857h-5.5032z"/>
    <path d="m158.18 292.08h5.5032v1.7857h-5.5032z"/>
    <path d="m158.18 294.95h5.5032v1.7857h-5.5032z"/>
    <path d="m158.18 297.83h5.5032v1.7857h-5.5032z"/>
    <path d="m158.18 300.7h5.5032v1.7857h-5.5032z"/>
    <path d="m158.18 303.58h5.5032v1.7857h-5.5032z"/>
   </g>
   <g transform="translate(36.117 -.012934)" fill="#e6e7e8">
    <path d="m158.03 246.08h5.5032v1.7857h-5.5032z"/>
    <path d="m158.03 248.95h5.5032v1.7857h-5.5032z"/>
    <path d="m158.03 251.83h5.5032v1.7857h-5.5032z"/>
    <path d="m158.03 254.7h5.5032v1.7857h-5.5032z"/>
    <path d="m158.03 257.58h5.5032v1.7857h-5.5032z"/>
    <path d="m158.18 260.45h5.5032v1.7857h-5.5032z"/>
    <path d="m158.18 263.33h5.5032v1.7857h-5.5032z"/>
    <path d="m158.18 266.2h5.5032v1.7857h-5.5032z"/>
    <path d="m158.18 269.08h5.5032v1.7857h-5.5032z"/>
    <path d="m158.18 271.95h5.5032v1.7857h-5.5032z"/>
    <path d="m158.18 274.83h5.5032v1.7857h-5.5032z"/>
    <path d="m158.18 277.7h5.5032v1.7857h-5.5032z"/>
    <path d="m158.18 280.58h5.5032v1.7857h-5.5032z"/>
    <path d="m158.18 283.45h5.5032v1.7857h-5.5032z"/>
    <path d="m158.18 286.33h5.5032v1.7857h-5.5032z"/>
    <path d="m158.18 289.2h5.5032v1.7857h-5.5032z"/>
    <path d="m158.18 292.08h5.5032v1.7857h-5.5032z"/>
    <path d="m158.18 294.95h5.5032v1.7857h-5.5032z"/>
    <path d="m158.18 297.83h5.5032v1.7857h-5.5032z"/>
    <path d="m158.18 300.7h5.5032v1.7857h-5.5032z"/>
    <path d="m158.18 303.58h5.5032v1.7857h-5.5032z"/>
   </g>
  </g>
  <g transform="translate(269.41 228.88)">
   <path d="m162.63 244.24h32.678v62.932h-32.678z"/>
   <g transform="translate(0 -.012934)" fill="#e6e7e8">
    <path d="m158.03 246.08h5.5032v1.7857h-5.5032z"/>
    <path d="m158.03 248.95h5.5032v1.7857h-5.5032z"/>
    <path d="m158.03 251.83h5.5032v1.7857h-5.5032z"/>
    <path d="m158.03 254.7h5.5032v1.7857h-5.5032z"/>
    <path d="m158.03 257.58h5.5032v1.7857h-5.5032z"/>
    <path d="m158.18 260.45h5.5032v1.7857h-5.5032z"/>
    <path d="m158.18 263.33h5.5032v1.7857h-5.5032z"/>
    <path d="m158.18 266.2h5.5032v1.7857h-5.5032z"/>
    <path d="m158.18 269.08h5.5032v1.7857h-5.5032z"/>
    <path d="m158.18 271.95h5.5032v1.7857h-5.5032z"/>
    <path d="m158.18 274.83h5.5032v1.7857h-5.5032z"/>
    <path d="m158.18 277.7h5.5032v1.7857h-5.5032z"/>
    <path d="m158.18 280.58h5.5032v1.7857h-5.5032z"/>
    <path d="m158.18 283.45h5.5032v1.7857h-5.5032z"/>
    <path d="m158.18 286.33h5.5032v1.7857h-5.5032z"/>
    <path d="m158.18 289.2h5.5032v1.7857h-5.5032z"/>
    <path d="m158.18 292.08h5.5032v1.7857h-5.5032z"/>
    <path d="m158.18 294.95h5.5032v1.7857h-5.5032z"/>
    <path d="m158.18 297.83h5.5032v1.7857h-5.5032z"/>
    <path d="m158.18 300.7h5.5032v1.7857h-5.5032z"/>
    <path d="m158.18 303.58h5.5032v1.7857h-5.5032z"/>
   </g>
   <g transform="translate(36.117 -.012934)" fill="#e6e7e8">
    <path d="m158.03 246.08h5.5032v1.7857h-5.5032z"/>
    <path d="m158.03 248.95h5.5032v1.7857h-5.5032z"/>
    <path d="m158.03 251.83h5.5032v1.7857h-5.5032z"/>
    <path d="m158.03 254.7h5.5032v1.7857h-5.5032z"/>
    <path d="m158.03 257.58h5.5032v1.7857h-5.5032z"/>
    <path d="m158.18 260.45h5.5032v1.7857h-5.5032z"/>
    <path d="m158.18 263.33h5.5032v1.7857h-5.5032z"/>
    <path d="m158.18 266.2h5.5032v1.7857h-5.5032z"/>
    <path d="m158.18 269.08h5.5032v1.7857h-5.5032z"/>
    <path d="m158.18 271.95h5.5032v1.7857h-5.5032z"/>
    <path d="m158.18 274.83h5.5032v1.7857h-5.5032z"/>
    <path d="m158.18 277.7h5.5032v1.7857h-5.5032z"/>
    <path d="m158.18 280.58h5.5032v1.7857h-5.5032z"/>
    <path d="m158.18 283.45h5.5032v1.7857h-5.5032z"/>
    <path d="m158.18 286.33h5.5032v1.7857h-5.5032z"/>
    <path d="m158.18 289.2h5.5032v1.7857h-5.5032z"/>
    <path d="m158.18 292.08h5.5032v1.7857h-5.5032z"/>
    <path d="m158.18 294.95h5.5032v1.7857h-5.5032z"/>
    <path d="m158.18 297.83h5.5032v1.7857h-5.5032z"/>
    <path d="m158.18 300.7h5.5032v1.7857h-5.5032z"/>
    <path d="m158.18 303.58h5.5032v1.7857h-5.5032z"/>
   </g>
  </g>
  <g transform="translate(314.91 228.88)">
   <path d="m162.63 244.24h32.678v62.932h-32.678z"/>
   <g transform="translate(0 -.012934)" fill="#e6e7e8">
    <path d="m158.03 246.08h5.5032v1.7857h-5.5032z"/>
    <path d="m158.03 248.95h5.5032v1.7857h-5.5032z"/>
    <path d="m158.03 251.83h5.5032v1.7857h-5.5032z"/>
    <path d="m158.03 254.7h5.5032v1.7857h-5.5032z"/>
    <path d="m158.03 257.58h5.5032v1.7857h-5.5032z"/>
    <path d="m158.18 260.45h5.5032v1.7857h-5.5032z"/>
    <path d="m158.18 263.33h5.5032v1.7857h-5.5032z"/>
    <path d="m158.18 266.2h5.5032v1.7857h-5.5032z"/>
    <path d="m158.18 269.08h5.5032v1.7857h-5.5032z"/>
    <path d="m158.18 271.95h5.5032v1.7857h-5.5032z"/>
    <path d="m158.18 274.83h5.5032v1.7857h-5.5032z"/>
    <path d="m158.18 277.7h5.5032v1.7857h-5.5032z"/>
    <path d="m158.18 280.58h5.5032v1.7857h-5.5032z"/>
    <path d="m158.18 283.45h5.5032v1.7857h-5.5032z"/>
    <path d="m158.18 286.33h5.5032v1.7857h-5.5032z"/>
    <path d="m158.18 289.2h5.5032v1.7857h-5.5032z"/>
    <path d="m158.18 292.08h5.5032v1.7857h-5.5032z"/>
    <path d="m158.18 294.95h5.5032v1.7857h-5.5032z"/>
    <path d="m158.18 297.83h5.5032v1.7857h-5.5032z"/>
    <path d="m158.18 300.7h5.5032v1.7857h-5.5032z"/>
    <path d="m158.18 303.58h5.5032v1.7857h-5.5032z"/>
   </g>
   <g transform="translate(36.117 -.012934)" fill="#e6e7e8">
    <path d="m158.03 246.08h5.5032v1.7857h-5.5032z"/>
    <path d="m158.03 248.95h5.5032v1.7857h-5.5032z"/>
    <path d="m158.03 251.83h5.5032v1.7857h-5.5032z"/>
    <path d="m158.03 254.7h5.5032v1.7857h-5.5032z"/>
    <path d="m158.03 257.58h5.5032v1.7857h-5.5032z"/>
    <path d="m158.18 260.45h5.5032v1.7857h-5.5032z"/>
    <path d="m158.18 263.33h5.5032v1.7857h-5.5032z"/>
    <path d="m158.18 266.2h5.5032v1.7857h-5.5032z"/>
    <path d="m158.18 269.08h5.5032v1.7857h-5.5032z"/>
    <path d="m158.18 271.95h5.5032v1.7857h-5.5032z"/>
    <path d="m158.18 274.83h5.5032v1.7857h-5.5032z"/>
    <path d="m158.18 277.7h5.5032v1.7857h-5.5032z"/>
    <path d="m158.18 280.58h5.5032v1.7857h-5.5032z"/>
    <path d="m158.18 283.45h5.5032v1.7857h-5.5032z"/>
    <path d="m158.18 286.33h5.5032v1.7857h-5.5032z"/>
    <path d="m158.18 289.2h5.5032v1.7857h-5.5032z"/>
    <path d="m158.18 292.08h5.5032v1.7857h-5.5032z"/>
    <path d="m158.18 294.95h5.5032v1.7857h-5.5032z"/>
    <path d="m158.18 297.83h5.5032v1.7857h-5.5032z"/>
    <path d="m158.18 300.7h5.5032v1.7857h-5.5032z"/>
    <path d="m158.18 303.58h5.5032v1.7857h-5.5032z"/>
   </g>
  </g>
  <g transform="translate(359.91 228.88)">
   <path d="m162.63 244.24h32.678v62.932h-32.678z"/>
   <g transform="translate(0 -.012934)" fill="#e6e7e8">
    <path d="m158.03 246.08h5.5032v1.7857h-5.5032z"/>
    <path d="m158.03 248.95h5.5032v1.7857h-5.5032z"/>
    <path d="m158.03 251.83h5.5032v1.7857h-5.5032z"/>
    <path d="m158.03 254.7h5.5032v1.7857h-5.5032z"/>
    <path d="m158.03 257.58h5.5032v1.7857h-5.5032z"/>
    <path d="m158.18 260.45h5.5032v1.7857h-5.5032z"/>
    <path d="m158.18 263.33h5.5032v1.7857h-5.5032z"/>
    <path d="m158.18 266.2h5.5032v1.7857h-5.5032z"/>
    <path d="m158.18 269.08h5.5032v1.7857h-5.5032z"/>
    <path d="m158.18 271.95h5.5032v1.7857h-5.5032z"/>
    <path d="m158.18 274.83h5.5032v1.7857h-5.5032z"/>
    <path d="m158.18 277.7h5.5032v1.7857h-5.5032z"/>
    <path d="m158.18 280.58h5.5032v1.7857h-5.5032z"/>
    <path d="m158.18 283.45h5.5032v1.7857h-5.5032z"/>
    <path d="m158.18 286.33h5.5032v1.7857h-5.5032z"/>
    <path d="m158.18 289.2h5.5032v1.7857h-5.5032z"/>
    <path d="m158.18 292.08h5.5032v1.7857h-5.5032z"/>
    <path d="m158.18 294.95h5.5032v1.7857h-5.5032z"/>
    <path d="m158.18 297.83h5.5032v1.7857h-5.5032z"/>
    <path d="m158.18 300.7h5.5032v1.7857h-5.5032z"/>
    <path d="m158.18 303.58h5.5032v1.7857h-5.5032z"/>
   </g>
   <g transform="translate(36.117 -.012934)" fill="#e6e7e8">
    <path d="m158.03 246.08h5.5032v1.7857h-5.5032z"/>
    <path d="m158.03 248.95h5.5032v1.7857h-5.5032z"/>
    <path d="m158.03 251.83h5.5032v1.7857h-5.5032z"/>
    <path d="m158.03 254.7h5.5032v1.7857h-5.5032z"/>
    <path d="m158.03 257.58h5.5032v1.7857h-5.5032z"/>
    <path d="m158.18 260.45h5.5032v1.7857h-5.5032z"/>
    <path d="m158.18 263.33h5.5032v1.7857h-5.5032z"/>
    <path d="m158.18 266.2h5.5032v1.7857h-5.5032z"/>
    <path d="m158.18 269.08h5.5032v1.7857h-5.5032z"/>
    <path d="m158.18 271.95h5.5032v1.7857h-5.5032z"/>
    <path d="m158.18 274.83h5.5032v1.7857h-5.5032z"/>
    <path d="m158.18 277.7h5.5032v1.7857h-5.5032z"/>
    <path d="m158.18 280.58h5.5032v1.7857h-5.5032z"/>
    <path d="m158.18 283.45h5.5032v1.7857h-5.5032z"/>
    <path d="m158.18 286.33h5.5032v1.7857h-5.5032z"/>
    <path d="m158.18 289.2h5.5032v1.7857h-5.5032z"/>
    <path d="m158.18 292.08h5.5032v1.7857h-5.5032z"/>
    <path d="m158.18 294.95h5.5032v1.7857h-5.5032z"/>
    <path d="m158.18 297.83h5.5032v1.7857h-5.5032z"/>
    <path d="m158.18 300.7h5.5032v1.7857h-5.5032z"/>
    <path d="m158.18 303.58h5.5032v1.7857h-5.5032z"/>
   </g>
  </g>
  <path d="m220.38 548.05h4.5962v10.96h-4.5962z" fill="#ff0" fill-rule="evenodd"/>
  <path d="m214.11 548.05h4.5962v10.96h-4.5962z" fill="#ff0" fill-rule="evenodd"/>
  <path d="m207.83 548.05h4.5962v10.96h-4.5962z" fill="#ff0" fill-rule="evenodd"/>
  <path d="m201.56 548.05h4.5962v10.96h-4.5962z" fill="#ff0" fill-rule="evenodd"/>
  <path d="m195.28 548.05h4.5962v10.96h-4.5962z" fill="#ff0" fill-rule="evenodd"/>
  <path d="m189.01 548.05h4.5962v10.96h-4.5962z" fill="#ff0" fill-rule="evenodd"/>
  <path d="m182.73 548.05h4.5962v10.96h-4.5962z" fill="#ff0" fill-rule="evenodd"/>
  <path d="m176.46 548.05h4.5962v10.96h-4.5962z" fill="#ff0" fill-rule="evenodd"/>
  <path d="m170.18 548.05h4.5962v10.96h-4.5962z" fill="#ff0" fill-rule="evenodd"/>
  <path d="m163.9 548.05h4.5962v10.96h-4.5962z" fill="#ff0" fill-rule="evenodd"/>
  <path d="m157.63 548.05h4.5962v10.96h-4.5962z" fill="#ff0" fill-rule="evenodd"/>
  <path d="m305.36 548.05h4.5962v10.96h-4.5962z" fill="#ff0" fill-rule="evenodd"/>
  <path d="m298.99 548.05h4.5962v10.96h-4.5962z" fill="#ff0" fill-rule="evenodd"/>
  <path d="m292.63 548.05h4.5962v10.96h-4.5962z" fill="#ff0" fill-rule="evenodd"/>
  <path d="m286.26 548.05h4.5962v10.96h-4.5962z" fill="#ff0" fill-rule="evenodd"/>
  <path d="m279.89 548.05h4.5962v10.96h-4.5962z" fill="#ff0" fill-rule="evenodd"/>
  <path d="m273.52 548.05h4.5962v10.96h-4.5962z" fill="#ff0" fill-rule="evenodd"/>
  <path d="m267.16 548.05h4.5962v10.96h-4.5962z" fill="#ff0" fill-rule="evenodd"/>
  <path d="m260.79 548.05h4.5962v10.96h-4.5962z" fill="#ff0" fill-rule="evenodd"/>
  <path d="m254.42 548.05h4.5962v10.96h-4.5962z" fill="#ff0" fill-rule="evenodd"/>
  <path d="m248.05 548.05h4.5962v10.96h-4.5962z" fill="#ff0" fill-rule="evenodd"/>
  <path d="m241.69 548.05h4.5962v10.96h-4.5962z" fill="#ff0" fill-rule="evenodd"/>
  <path d="m343.56 548.05h4.5962v10.96h-4.5962z" fill="#ff0" fill-rule="evenodd"/>
  <path d="m337.2 548.05h4.5962v10.96h-4.5962z" fill="#ff0" fill-rule="evenodd"/>
  <path d="m330.83 548.05h4.5962v10.96h-4.5962z" fill="#ff0" fill-rule="evenodd"/>
  <path d="m324.46 548.05h4.5962v10.96h-4.5962z" fill="#ff0" fill-rule="evenodd"/>
  <path d="m318.1 548.05h4.5962v10.96h-4.5962z" fill="#ff0" fill-rule="evenodd"/>
  <path d="m311.73 548.05h4.5962v10.96h-4.5962z" fill="#ff0" fill-rule="evenodd"/>
  <path d="m433.8 548.05h4.5962v10.96h-4.5962z" fill="#ff0" fill-rule="evenodd"/>
  <path d="m427.43 548.05h4.5962v10.96h-4.5962z" fill="#ff0" fill-rule="evenodd"/>
  <path d="m421.07 548.05h4.5962v10.96h-4.5962z" fill="#ff0" fill-rule="evenodd"/>
  <path d="m414.7 548.05h4.5962v10.96h-4.5962z" fill="#ff0" fill-rule="evenodd"/>
  <path d="m408.34 548.05h4.5962v10.96h-4.5962z" fill="#ff0" fill-rule="evenodd"/>
  <path d="m401.97 548.05h4.5962v10.96h-4.5962z" fill="#ff0" fill-rule="evenodd"/>
  <path d="m395.61 548.05h4.5962v10.96h-4.5962z" fill="#ff0" fill-rule="evenodd"/>
  <path d="m389.24 548.05h4.5962v10.96h-4.5962z" fill="#ff0" fill-rule="evenodd"/>
  <path d="m382.87 548.05h4.5962v10.96h-4.5962z" fill="#ff0" fill-rule="evenodd"/>
  <path d="m376.51 548.05h4.5962v10.96h-4.5962z" fill="#ff0" fill-rule="evenodd"/>
  <path d="m370.14 548.05h4.5962v10.96h-4.5962z" fill="#ff0" fill-rule="evenodd"/>
  <path d="m472 548.05h4.5962v10.96h-4.5962z" fill="#ff0" fill-rule="evenodd"/>
  <path d="m465.63 548.05h4.5962v10.96h-4.5962z" fill="#ff0" fill-rule="evenodd"/>
  <path d="m459.26 548.05h4.5962v10.96h-4.5962z" fill="#ff0" fill-rule="evenodd"/>
  <path d="m452.9 548.05h4.5962v10.96h-4.5962z" fill="#ff0" fill-rule="evenodd"/>
  <path d="m446.53 548.05h4.5962v10.96h-4.5962z" fill="#ff0" fill-rule="evenodd"/>
  <path d="m440.17 548.05h4.5962v10.96h-4.5962z" fill="#ff0" fill-rule="evenodd"/>
  <path d="m516.56 548.05h4.5962v10.96h-4.5962z" fill="#ff0" fill-rule="evenodd"/>
  <path d="m510.19 548.05h4.5962v10.96h-4.5962z" fill="#ff0" fill-rule="evenodd"/>
  <path d="m503.83 548.05h4.5962v10.96h-4.5962z" fill="#ff0" fill-rule="evenodd"/>
  <path d="m497.46 548.05h4.5962v10.96h-4.5962z" fill="#ff0" fill-rule="evenodd"/>
  <path d="m491.09 548.05h4.5962v10.96h-4.5962z" fill="#ff0" fill-rule="evenodd"/>
  <path d="m484.73 548.05h4.5962v10.96h-4.5962z" fill="#ff0" fill-rule="evenodd"/>
  <path d="m478.36 548.05h4.5962v10.96h-4.5962z" fill="#ff0" fill-rule="evenodd"/>
  <path d="m554.75 548.05h4.5962v10.96h-4.5962z" fill="#ff0" fill-rule="evenodd"/>
  <path d="m548.39 548.05h4.5962v10.96h-4.5962z" fill="#ff0" fill-rule="evenodd"/>
  <path d="m542.02 548.05h4.5962v10.96h-4.5962z" fill="#ff0" fill-rule="evenodd"/>
  <path d="m535.65 548.05h4.5962v10.96h-4.5962z" fill="#ff0" fill-rule="evenodd"/>
  <path d="m529.29 548.05h4.5962v10.96h-4.5962z" fill="#ff0" fill-rule="evenodd"/>
  <path d="m522.92 548.05h4.5962v10.96h-4.5962z" fill="#ff0" fill-rule="evenodd"/>
 </g>
</svg>
