<?xml version="1.0" encoding="UTF-8"?>
<svg version="1.1" viewBox="0 0 177.17 177.17" xmlns="http://www.w3.org/2000/svg">
 <defs>
  <linearGradient id="i" x1="222.42" x2="222.42" y1="135.56" y2="139.18" gradientTransform="translate(-131.51 4.5514)" gradientUnits="userSpaceOnUse">
   <stop stop-color="#313131" offset="0"/>
   <stop stop-color="#3e3e3e" stop-opacity=".49804" offset=".67272"/>
   <stop stop-color="#3d3d3d" offset="1"/>
  </linearGradient>
  <linearGradient id="j" x1="135.8" x2="50.14" y1="121.25" y2="35.586" gradientTransform="translate(-4.8551 4.5514)" gradientUnits="userSpaceOnUse">
   <stop stop-color="#4b4b4b" offset="0"/>
   <stop stop-color="#565656" offset="1"/>
  </linearGradient>
  <linearGradient id="k" x1="52.28" x2="54.948" y1="60.414" y2="60.414" gradientTransform="translate(-7.3392 4.5514)" gradientUnits="userSpaceOnUse">
   <stop stop-color="#989898" offset="0"/>
   <stop stop-color="#ababab" offset=".14968"/>
   <stop stop-color="#787878" offset=".29376"/>
   <stop stop-color="#626262" offset="1"/>
  </linearGradient>
  <linearGradient id="l" x1="41.992" x2="143.1" y1="21.239" y2="122.35" gradientTransform="translate(-4.8551 4.5514)" gradientUnits="userSpaceOnUse">
   <stop stop-color="#888" offset="0"/>
   <stop stop-color="#3f3f3f" offset="1"/>
  </linearGradient>
  <linearGradient id="m" x1="48.945" x2="146.16" y1="49.533" y2="130.31" gradientTransform="translate(-7.3392 4.5514)" gradientUnits="userSpaceOnUse">
   <stop stop-color="#4d4d4d" offset="0"/>
   <stop stop-color="#4d4d4d" offset=".37475"/>
   <stop stop-color="#4d4d4d" offset=".4392"/>
   <stop stop-color="#565656" offset=".47638"/>
   <stop stop-color="#565656" offset="1"/>
  </linearGradient>
  <linearGradient id="n" x1="101.5" x2="101.5" y1="135.99" y2="139.4" gradientTransform="translate(-4.8705 4.5514)" gradientUnits="userSpaceOnUse">
   <stop stop-color="#404040" offset="0"/>
   <stop stop-color="#5e5e5e" offset="1"/>
  </linearGradient>
  <linearGradient id="o" x1="47.329" x2="132.66" y1="35.182" y2="120.51" gradientTransform="translate(-7.3443 4.5514)" gradientUnits="userSpaceOnUse">
   <stop stop-color="#758bbd" offset="0"/>
   <stop stop-color="#7e6c96" offset="1"/>
  </linearGradient>
  <linearGradient id="p" x1="67.324" x2="131.83" y1="55.178" y2="119.68" gradientTransform="translate(-7.3392 4.5514)" gradientUnits="userSpaceOnUse">
   <stop stop-color="#788c8e" offset="0"/>
   <stop stop-color="#656e82" offset="1"/>
  </linearGradient>
 </defs>
 <path d="m48.005 31.083c-1.453 0-2.625 1.172-2.625 2.625v24.938h2.375v24.938h-2.375v59.875c0 1.453 1.172 2.625 2.625 2.625h28.75l0.90625-1h21.876l0.90625 1h28.719c1.453 0 2.625-1.172 2.625-2.625v-70.781h-2.5312v-6.3438h2.5312v-20.844l-14.406-14.406h-69.375z" fill="url(#j)"/>
 <path d="m47.609 70.395h-1.4657c-0.6446 0-1.1635-0.51894-1.1635-1.1635v-8.5325c0-0.6446 0.51894-1.1635 1.1635-1.1635h1.4657" fill="url(#k)"/>
 <path d="m48 30.688c-1.6681 0-3.0312 1.3631-3.0312 3.0312v24.938a0.40004 0.40004 0 0 0 0.40625 0.375h1.9688v24.156h-1.9688a0.40004 0.40004 0 0 0 -0.40625 0.40625v59.875c0 1.6681 1.3631 3 3.0312 3h28.75a0.40004 0.40004 0 0 0 0.3125 -0.125l0.78125-0.875h21.531l0.78125 0.875a0.40004 0.40004 0 0 0 0.28125 0.125h28.719c1.6681 0 3.0312-1.3319 3.0312-3v-70.781a0.40004 0.40004 0 0 0 -0.40625 -0.40625h-2.125v-5.5625h2.125a0.40004 0.40004 0 0 0 0.40625 -0.375v-20.844a0.40004 0.40004 0 0 0 -0.125 -0.28125l-14.406-14.406a0.40004 0.40004 0 0 0 -0.28125 -0.125h-69.375zm0 0.78125h69.188l14.188 14.188v20.281h-2.125a0.40004 0.40004 0 0 0 -0.40625 0.40625v6.3438a0.40004 0.40004 0 0 0 0.40625 0.375h2.125v70.406c0 1.2379-0.98083 2.2188-2.2188 2.2188h-28.531l-0.78125-0.875a0.40004 0.40004 0 0 0 -0.3125 -0.125h-21.876a0.40004 0.40004 0 0 0 -0.28125 0.125l-0.78125 0.875h-28.594c-1.2379 0-2.2188-0.98083-2.2188-2.2188v-59.5h1.9688a0.40004 0.40004 0 0 0 0.40625 -0.375v-24.938a0.40004 0.40004 0 0 0 -0.40625 -0.40625h-1.9688v-24.531c0-1.2379 0.98083-2.25 2.2188-2.25z" color="#000000" fill="url(#l)" style="block-progression:tb;text-indent:0;text-transform:none"/>
 <path d="m62.482 140.65h52.201c0.81616 0 1.4732 0.65705 1.4732 1.4732s-0.65705 1.4732-1.4732 1.4732h-52.201c-0.81616 0-1.4732-0.65706-1.4732-1.4732s0.65705-1.4732 1.4732-1.4732z" fill="url(#i)"/>
 <path d="m62.469 140.34c-0.97663 0-1.75 0.80462-1.75 1.7812s0.77336 1.7812 1.75 1.7812h52.219c0.97664 0 1.7812-0.80462 1.7812-1.7812s-0.80462-1.7812-1.7812-1.7812h-52.219zm0 0.59375h52.219c0.65569 0 1.1562 0.53181 1.1562 1.1875s-0.50057 1.1562-1.1562 1.1562h-52.219c-0.65568 0-1.1562-0.50056-1.1562-1.1562s0.50056-1.1875 1.1562-1.1875z" color="#000000" fill="url(#n)" style="block-progression:tb;text-indent:0;text-transform:none"/>
 <path d="m56.062 43.156c-3.2079 0-5.7812 2.5733-5.7812 5.7812v83.812c0 3.208 2.5733 5.7812 5.7812 5.7812h65.031c3.208 0 5.7812-2.5733 5.7812-5.7812v-83.812c0-3.2079-2.5733-5.7812-5.7812-5.7812h-65.031zm0 0.375h65.031c2.9949 0 5.4062 2.4114 5.4062 5.4062v83.812c0 2.9949-2.4114 5.4062-5.4062 5.4062h-65.031c-2.9949 0-5.375-2.4114-5.375-5.4062v-83.812c0-2.9949 2.3801-5.4062 5.375-5.4062z" color="#000000" fill="url(#m)" style="block-progression:tb;text-indent:0;text-transform:none"/>
 <path d="m56.881 44.806h63.403c2.7855 0 5.0279 2.2425 5.0279 5.0279v82.016c0 2.7855-2.2425 5.0279-5.0279 5.0279h-63.403c-2.7855 0-5.0279-2.2424-5.0279-5.0279v-82.016c0-2.7855 2.2425-5.0279 5.0279-5.0279z" fill="url(#p)"/>
 <path d="m56.874 44.801c-2.7855 0-5.0312 2.2458-5.0312 5.0312v24.792h73.469v-24.792c0-2.7855-2.2458-5.0312-5.0312-5.0312z" fill="url(#o)"/>
 <path transform="rotate(90)" d="m83.281-57.016h2.205v-0.47398h-1.628v-2.4111h-0.57702z" fill="#b8d1d1"/>
 <path transform="rotate(90)" d="m85.732-58.459c0.0077 0.45123 0.15198 0.81616 0.43276 1.0948s0.65172 0.42203 1.1128 0.43019c0.4611-0.0082 0.83204-0.15155 1.1128-0.43019 0.28078-0.27864 0.42504-0.64357 0.43277-1.0948-0.0077-0.45122-0.15199-0.81616-0.43277-1.0948-0.28078-0.27863-0.65173-0.42203-1.1128-0.43019-0.4611 0.0082-0.83204 0.15156-1.1128 0.43019-0.28078 0.27864-0.42504 0.64357-0.43276 1.0948zm2.4936 0c-6e-3 0.31341-0.09703 0.56242-0.27306 0.74704-0.17603 0.18461-0.401 0.27906-0.67491 0.28336-0.27391-0.0043-0.49888-0.09875-0.67491-0.28336s-0.26704-0.43362-0.27306-0.74704c6e-3 -0.31341 0.09703-0.56242 0.27306-0.74704 0.17602-0.18461 0.40099-0.27906 0.67491-0.28336 0.27391 0.0043 0.49888 0.09875 0.67491 0.28336 0.17602 0.18461 0.26704 0.43363 0.27306 0.74704z" fill="#b8d1d1"/>
 <path transform="rotate(90)" d="m90.749-59.984c-0.48085 0.0082-0.86381 0.15156-1.1489 0.43019-0.28508 0.27864-0.43105 0.64357-0.43792 1.0948 0.0069 0.45123 0.15284 0.81616 0.43792 1.0948s0.66804 0.42203 1.1489 0.43019c0.2071-0.0041 0.38595-0.03257 0.53657-0.08548 0.15061-0.05292 0.26688-0.10584 0.34881-0.15876 0.08192-0.05292 0.12339-0.08141 0.12441-0.08548l-0.2473-0.39155c-0.0043 0.0094-0.07299 0.04723-0.20608 0.11334-0.1331 0.06612-0.30483 0.1039-0.5152 0.11334-0.31341-0.0043-0.56242-0.09875-0.74704-0.28336-0.18461-0.18461-0.27906-0.43362-0.28336-0.74704 0.0043-0.31341 0.09875-0.56242 0.28336-0.74704 0.18461-0.18461 0.43362-0.27906 0.74704-0.28336 0.19603 0.0077 0.35729 0.03864 0.48377 0.09273 0.12648 0.0541 0.19191 0.08501 0.19629 0.09274l0.24729-0.39155c-3e-3 -0.01202-0.08973-0.0601-0.26017-0.14426-0.17045-0.08415-0.40658-0.13223-0.7084-0.14426z" fill="#b8d1d1"/>
 <path transform="rotate(90)" d="m94.797-59.901h-0.70067l-1.2983 1.3601h-0.02061v-1.3601h-0.57702v2.8851h0.57702v-0.74188l0.5152-0.5358 0.92735 1.2777h0.65945l-1.2159-1.6692z" fill="#b8d1d1"/>
 <path d="m90.852 53.349h-4.3422l2.1711-3.5998z" fill="#e5e5e5"/>
 <g fill="#f3f38c">
  <path d="m82.908 107.9c-0.93658-0.0141-1.7461-0.40945-2.4285-1.186-0.68243-0.77655-1.0401-1.8496-1.0731-3.2192 0.01882-0.0424 0.34827-0.21178 0.98834-0.50829 0.64006-0.2965 1.4778-0.46593 2.5132-0.50829 0.97186 0.0212 1.739 0.28945 2.3014 0.80479 0.5624 0.51535 0.84949 1.1507 0.86127 1.9061-0.01178 0.75538-0.29887 1.3908-0.86127 1.9061-0.56242 0.51535-1.3296 0.78362-2.3014 0.80479zm0.67772-14.006c-2.1885 0.01884-3.9675 0.77186-5.337 2.2591-1.3696 1.4872-2.0755 3.5957-2.1179 6.3254 0.04236 2.612 0.69184 4.617 1.9484 6.0148 1.2566 1.3978 2.8662 2.1038 4.8288 2.1179 1.9979-0.0424 3.5651-0.57888 4.7017-1.6096 1.1366-1.0307 1.7155-2.3014 1.7367-3.8122-0.02119-1.5107-0.60008-2.7815-1.7367-3.8122-1.1366-1.0307-2.7038-1.5672-4.7017-1.6096-1.0354 0.04708-1.8731 0.23533-2.5132 0.56476-0.64007 0.32946-0.96952 0.51772-0.98834 0.56477h-0.11295c0.13177-1.266 0.60241-2.292 1.4119-3.078 0.80949-0.78595 1.8449-1.1907 3.1062-1.2142 0.98598 0.04237 1.8096 0.2118 2.4709 0.50829 0.66124 0.29652 1.0048 0.46594 1.0307 0.50829l1.3554-2.1461c-0.02825-0.06587-0.5083-0.32943-1.4402-0.79067-0.93188-0.46121-2.1461-0.72477-3.6427-0.79067z"/>
  <path d="m90.902 107h8.9233v3.1627h3.1627v-3.1627h2.1461v-2.7109h-2.1461v-9.9399h-3.1627l-8.9233 9.9399zm3.7275-2.7109v-0.11295l5.0829-5.7606h0.11295v5.8736z"/>
 </g>
 <g fill="#d5d5d5">
  <path d="m110.89 103.18c-1.0808 0.0187-1.9458 0.34778-2.595 0.98718-0.64926 0.6394-0.98226 1.4768-0.999 2.5123 0.0167 1.0354 0.34974 1.8729 0.999 2.5123 0.64924 0.63939 1.5142 0.96845 2.595 0.98717 0.50792-0.0102 0.9528-0.0813 1.3346-0.21333 0.38182-0.13206 0.67957-0.26412 0.89326-0.39618 0.21367-0.13206 0.32226-0.20317 0.32577-0.21333v-3.1968h-2.6955v1.0877h1.3714v1.5606c-6e-3 0.01-0.11232 0.0493-0.31921 0.11822-0.2069 0.069-0.47882 0.10837-0.81575 0.11823-0.71921-0.01-1.2906-0.2266-1.7143-0.65024-0.42364-0.42364-0.64039-0.99506-0.65024-1.7143 0.01-0.7192 0.2266-1.2906 0.65024-1.7143 0.42364-0.42363 0.99505-0.64038 1.7143-0.65023 0.44984 0.0177 0.81988 0.0887 1.1101 0.2128 0.29023 0.12414 0.44038 0.19508 0.45043 0.21281l0.56748-0.89851c-7e-3 -0.0276-0.20591-0.13792-0.59703-0.33103-0.39113-0.1931-0.933-0.30344-1.6256-0.33103z"/>
  <path d="m114.77 109.99h3.3008c0.85772-0.0168 1.5068-0.20788 1.9472-0.57339 0.44038-0.36551 0.66146-0.80491 0.66324-1.3182-0.0193-0.43647-0.15414-0.76995-0.4046-1.0004-0.25046-0.23049-0.50092-0.38742-0.75138-0.47079-0.25047-0.0834-0.38533-0.1226-0.40459-0.1177v-0.0473c0.0134 3e-3 0.10742-0.0316 0.28199-0.10474 0.17456-0.0731 0.34912-0.20399 0.52369-0.39268 0.17456-0.18869 0.26855-0.4548 0.28199-0.79833 5e-3 -0.53003-0.19409-0.95958-0.59704-1.2886-0.40295-0.32905-1.0394-0.4985-1.9093-0.50836h-2.932zm3.3103-2.8374c0.42364 5e-3 0.73496 0.0897 0.93398 0.25418 0.199 0.16453 0.29752 0.37931 0.29556 0.64433 2e-3 0.24236-0.0966 0.44334-0.29556 0.60294-0.19902 0.15961-0.51034 0.24237-0.93398 0.24828h-1.9862v-1.7497zm-0.37832-1.0877h-1.6078v-1.6078h1.6078c0.37832 7e-3 0.66206 0.0877 0.85122 0.24236 0.18916 0.15468 0.28374 0.34187 0.28374 0.56156 0 0.21971-0.0946 0.4069-0.28374 0.56157-0.18916 0.15468-0.4729 0.23547-0.85122 0.24236z"/>
 </g>
 <path d="m59.416 79.516c0 0.52833-0.42829 0.95662-0.95662 0.95662s-0.95662-0.42829-0.95662-0.95662 0.42829-0.95662 0.95662-0.95662 0.95662 0.42829 0.95662 0.95662z" fill="#d2f0f0"/>
 <g transform="translate(-7.1839 4.5514)">
  <path d="m66.227 110.79h59.08c1.4254 0 2.573 1.1476 2.573 2.573v12.924c0 1.4254-1.1476 2.573-2.573 2.573h-59.08c-1.4254 0-2.573-1.1476-2.573-2.573v-12.924c0-1.4254 1.1476-2.573 2.573-2.573z" fill="#d1d1d1"/>
  <path d="m67.219 125.69v0.375h57.219v-0.375h-57.219z" color="#000000" fill="#a6a6a6" style="block-progression:tb;text-indent:0;text-transform:none"/>
 </g>
 <path d="m51.844 74.531v0.1875h73.469v-0.1875h-73.469z" color="#000000" fill="#979797" style="block-progression:tb;text-indent:0;text-transform:none"/>
 <g fill="#dfdfdf">
  <path d="m60.684 58.989c-1.2258 0.02902-2.1687 0.31915-2.8287 0.87038-0.66004 0.55125-0.99368 1.1895-1.0009 1.9148 0.02865 0.8693 0.31515 1.5156 0.8595 1.9388 0.54435 0.42323 1.1746 0.73439 1.8909 0.93348 0.71624 0.1991 1.3465 0.39711 1.8909 0.59403 0.54434 0.19693 0.83084 0.50374 0.8595 0.92043 0.0014 0.39893-0.19294 0.74998-0.58315 1.0532-0.39022 0.30318-0.98498 0.46275-1.7843 0.47871-0.80772-0.04352-1.4588-0.21759-1.9531-0.52223-0.49438-0.30463-0.74853-0.47871-0.76245-0.52223l-0.83556 1.323c0.0038 0.01633 0.15559 0.13066 0.45543 0.34299s0.72501 0.42466 1.2755 0.63699c0.55051 0.21233 1.2037 0.32666 1.9594 0.34299 1.3955-0.02611 2.4516-0.33945 3.1682-0.94001s1.0764-1.3317 1.0793-2.1934c-0.02866-0.83393-0.31516-1.4508-0.8595-1.8506-0.54436-0.39982-1.1747-0.69684-1.8909-0.89105-0.71625-0.1942-1.3466-0.39982-1.8909-0.61688-0.54435-0.21704-0.83085-0.55976-0.8595-1.0281-0.0015-0.25966 0.15812-0.50626 0.47871-0.73982 0.32059-0.23354 0.8109-0.3583 1.4709-0.37426 0.74707 0.03482 1.3592 0.17408 1.8365 0.41778 0.47725 0.24371 0.72386 0.38297 0.73982 0.41778l0.76593-1.323c-0.0043-0.0146-0.15044-0.1169-0.43841-0.30689-0.28798-0.18997-0.69201-0.37995-1.2121-0.56994-0.52008-0.18997-1.1304-0.29226-1.831-0.30689z" style=""/>
  <path d="m65.959 59.268v9.7482h3.76c1.5884-0.02466 2.8505-0.48016 3.7861-1.3665 0.93565-0.88633 1.4144-2.0555 1.4361-3.5076-0.02177-1.4216-0.50048-2.5821-1.4361-3.4815-0.93566-0.89938-2.1977-1.3636-3.7861-1.3926zm3.76 1.6015c0.95596 0.01451 1.7248 0.31624 2.3065 0.90519 0.5817 0.58896 0.88053 1.3781 0.89649 2.3674-0.01596 0.98933-0.3148 1.7785-0.89649 2.3674-0.58171 0.58896-1.3505 0.89069-2.3065 0.90519h-1.8104v-6.5452z" style=""/>
  <path d="m85.479 58.989c-1.6247 0.02757-2.9187 0.51208-3.8819 1.4535-0.96322 0.94147-1.4564 2.1745-1.4796 3.6991 0.02321 1.5246 0.51642 2.7577 1.4796 3.6991 0.96322 0.94146 2.2572 1.426 3.8819 1.4535 0.69974-0.01375 1.3041-0.11003 1.813-0.28884 0.5089-0.1788 0.90175-0.35761 1.1786-0.53641 0.27679-0.1788 0.41691-0.27508 0.42036-0.28884l-0.83556-1.323c-0.01451 0.03192-0.24662 0.15957-0.6963 0.38297-0.4497 0.2234-1.03 0.35105-1.7408 0.38297-1.059-0.0145-1.9003-0.33364-2.5241-0.95742-0.62378-0.62377-0.94291-1.4651-0.95742-2.5241 0.0145-1.059 0.33364-1.9003 0.95742-2.5241 0.62377-0.62376 1.4651-0.9429 2.5241-0.95742 0.66235 0.02612 1.2072 0.13056 1.6346 0.31334 0.42735 0.18279 0.64842 0.28723 0.66323 0.31334l0.83556-1.323c-0.01016-0.04061-0.30319-0.20308-0.87908-0.48741-0.57591-0.28432-1.3738-0.44678-2.3935-0.48741z" style=""/>
  <path d="m95.857 59.268h-2.4371l-4.0386 9.7482h2.0889l0.76593-1.9496h4.8045l0.76593 1.9496h2.0889zm-1.2533 2.0889h0.06963l1.6711 4.0386h-3.4119z" style=""/>
  <path d="m101.16 59.268v9.7482h1.9496v-3.3423h2.7156l2.2978 3.3423h2.2978l-2.5763-3.6904v-0.06963c0.0223 0.0043 0.17879-0.08166 0.46936-0.25789 0.29054-0.17622 0.5811-0.4685 0.87166-0.87683 0.29055-0.40832 0.447-0.95848 0.46936-1.6505-3e-3 -0.9255-0.34526-1.6856-1.027-2.2804-0.68181-0.59475-1.6856-0.90228-3.0115-0.9226zm6.4756 3.203c-1e-3 0.40183-0.17263 0.76449-0.51352 1.088-0.3409 0.3235-0.84282 0.49467-1.5058 0.51352h-2.5067v-3.203h2.5067c0.66293 0.01016 1.1648 0.16393 1.5058 0.4613 0.34089 0.29739 0.51207 0.67745 0.51352 1.1402z" style=""/>
  <path d="m111.74 59.268v9.7482h3.76c1.5884-0.02466 2.8505-0.48016 3.7862-1.3665 0.93565-0.88633 1.4144-2.0555 1.4361-3.5076-0.0218-1.4216-0.50048-2.5821-1.4361-3.4815-0.93566-0.89938-2.1977-1.3636-3.7862-1.3926zm3.76 1.6015c0.95596 0.01451 1.7248 0.31624 2.3065 0.90519 0.58169 0.58896 0.88052 1.3781 0.89649 2.3674-0.016 0.98933-0.3148 1.7785-0.89649 2.3674-0.58171 0.58896-1.3506 0.89069-2.3065 0.90519h-1.8104v-6.5452z" style=""/>
 </g>
</svg>
