<?xml version="1.0" encoding="UTF-8"?>
<svg viewBox="0 0 429.47296 706.25983" xmlns="http://www.w3.org/2000/svg" xmlns:xlink="http://www.w3.org/1999/xlink">
 <defs>
  <linearGradient id="a">
   <stop stop-color="#7b7d8b" offset="0"/>
   <stop stop-color="#0f0f19" offset="1"/>
  </linearGradient>
  <linearGradient id="n" x1="306.86" x2="675.09" y1="379.13" y2="166.54" gradientUnits="userSpaceOnUse">
   <stop stop-color="#d4d2a8" offset="0"/>
   <stop stop-color="#121212" offset="1"/>
  </linearGradient>
  <linearGradient id="l" x1="490.98" x2="613.72" y1="60.236" y2="131.1" gradientUnits="userSpaceOnUse">
   <stop stop-color="#ffffc3" offset="0"/>
   <stop stop-color="#fff" offset=".48883"/>
   <stop stop-color="#ffffc3" offset="1"/>
  </linearGradient>
  <linearGradient id="k" x1="675.09" x2="613.72" y1="237.4" y2="343.7" gradientUnits="userSpaceOnUse">
   <stop stop-color="#ffffc3" offset="0"/>
   <stop stop-color="#fff" offset=".52134"/>
   <stop stop-color="#ffffc3" offset="1"/>
  </linearGradient>
  <linearGradient id="m" x1="429.6" x2="552.35" gradientUnits="userSpaceOnUse" xlink:href="#a"/>
  <linearGradient id="d" x1="344.25" x2="551.78" gradientUnits="userSpaceOnUse" xlink:href="#a"/>
  <linearGradient id="j" x1="478.7" x2="466.43" y1="329.53" y2="350.79" gradientUnits="userSpaceOnUse" xlink:href="#a"/>
  <linearGradient id="i" x1="451.08" x2="438.81" y1="465.94" y2="487.2" gradientUnits="userSpaceOnUse" xlink:href="#a"/>
  <linearGradient id="h" x1="460.29" x2="448.01" y1="439.37" y2="460.63" gradientUnits="userSpaceOnUse" xlink:href="#a"/>
  <linearGradient id="g" x1="475.63" x2="463.36" y1="419.88" y2="441.14" gradientUnits="userSpaceOnUse" xlink:href="#a"/>
  <linearGradient id="f" x1="460.29" x2="448.01" y1="574.02" y2="595.28" gradientUnits="userSpaceOnUse" xlink:href="#a"/>
  <linearGradient id="e" x1="454.15" x2="441.88" y1="605.91" y2="627.17" gradientUnits="userSpaceOnUse" xlink:href="#a"/>
  <radialGradient id="c" cx="544.68" cy="507.58" r="7.6715" gradientTransform="matrix(.6462 0 0 .37308 192.71 318.21)" gradientUnits="userSpaceOnUse">
   <stop stop-color="#fff" offset="0"/>
   <stop stop-color="#38a5ff" offset=".26786"/>
   <stop stop-color="#fff" stop-opacity="0" offset="1"/>
  </radialGradient>
  <radialGradient id="b" cx="544.68" cy="507.58" r="7.6715" gradientTransform="matrix(.6462 0 0 .37308 192.71 318.21)" gradientUnits="userSpaceOnUse">
   <stop stop-color="#fff" offset="0"/>
   <stop stop-color="#43ff38" offset=".26786"/>
   <stop stop-color="#fff" stop-opacity="0" offset="1"/>
  </radialGradient>
 </defs>
 <g transform="translate(-304.36 -.31494)">
  <path d="m490.98 5.3149-153.43 88.583v485.43l211.73 122.24 153.43-88.583v-488.98l-211.73-118.7z" fill="url(#n)" fill-rule="evenodd" stroke="#000" stroke-linecap="round" stroke-linejoin="round" stroke-width="10"/>
  <path d="m337.55 579.33 211.73 122.24v-485.43l-211.73-122.24v485.43z" fill="none" stroke="#000" stroke-linecap="round" stroke-linejoin="round" stroke-width="5"/>
  <path transform="matrix(.85668 0 0 .85688 -546.14 -230.21)" d="m1472.9 609.45a30.686 88.583 0 1 1 -61.372 0 30.686 88.583 0 1 1 61.372 0z" fill="none" stroke="#000" stroke-linecap="round" stroke-linejoin="round" stroke-width="11.672"/>
  <path transform="matrix(.85668 0 0 .85688 -546.14 -55.627)" d="m1472.9 609.45a30.686 88.583 0 1 1 -61.372 0 30.686 88.583 0 1 1 61.372 0z" fill="none" stroke="#000" stroke-linecap="round" stroke-linejoin="round" stroke-width="11.672"/>
  <path transform="matrix(.85668 0 0 .85688 -532.99 -139.12)" d="m1472.9 609.45a30.686 88.583 0 1 1 -61.372 0 30.686 88.583 0 1 1 61.372 0z" fill="none" stroke="#000" stroke-linecap="round" stroke-linejoin="round" stroke-width="11.672"/>
  <path d="m702.54 125.03 0.1636 488.06-153.43 88.492v-485.43l153.27-91.115z" fill="url(#k)" fill-rule="evenodd" stroke="#000" stroke-linecap="round" stroke-linejoin="round" stroke-width="5"/>
  <path d="m352.89 573.36 15.343-1.1208v-464.17l-15.343-8.8583v474.15z" fill="#7d7d7d" fill-rule="evenodd" stroke="#000" stroke-linecap="round" stroke-linejoin="round" stroke-width="5"/>
  <path d="m346.75 574.02 202.53 116.93v-31.89l-202.53-116.93v31.89z" fill="url(#e)" fill-rule="evenodd" stroke="#000" stroke-linecap="round" stroke-linejoin="round" stroke-width="5"/>
  <path d="m346.75 542.13 202.53 116.93v-35.433l-202.53-113.39v31.89z" fill="url(#f)" fill-rule="evenodd" stroke="#000" stroke-linecap="round" stroke-linejoin="round" stroke-width="5"/>
  <path d="m346.75 510.24 202.53-114.33v227.71l-202.53-113.39z" fill="url(#d)" fill-rule="evenodd" stroke="#000" stroke-linecap="round" stroke-linejoin="round" stroke-width="5"/>
  <path d="m346.75 403.94 202.53 116.93v-31.89l-202.53-113.39v28.346z" fill="url(#h)" fill-rule="evenodd" stroke="#000" stroke-linecap="round" stroke-linejoin="round" stroke-width="5"/>
  <path d="m346.75 375.59 202.53 113.39v-28.346l-202.53-116.93v31.89z" fill="url(#g)" fill-rule="evenodd" stroke="#000" stroke-linecap="round" stroke-linejoin="round" stroke-width="5"/>
  <path d="m346.75 343.7 202.53-110.78v227.71l-202.53-116.93z" fill="url(#d)" fill-rule="evenodd" stroke="#000" stroke-linecap="round" stroke-linejoin="round" stroke-width="5"/>
  <path d="m346.75 283.46 202.53 116.93v-31.89l-202.53-116.93v31.89z" fill="url(#j)" fill-rule="evenodd" stroke="#000" stroke-linecap="round" stroke-linejoin="round" stroke-width="5"/>
  <path d="m346.75 251.57 132.35-73.415 70.182 37.982v152.36l-202.53-116.93z" fill="url(#m)" fill-rule="evenodd" stroke="#000" stroke-linecap="round" stroke-linejoin="round" stroke-width="5"/>
  <path d="m337.55 93.898 153.43-88.583 211.57 119.71-153.27 91.115-211.73-122.24z" fill="url(#l)" fill-rule="evenodd" stroke="#000" stroke-linecap="round" stroke-linejoin="round" stroke-width="5"/>
  <path d="m346.75 435.83 202.53 114.27v-29.227l-202.53-116.93v31.89z" fill="url(#i)" fill-rule="evenodd" stroke="#000" stroke-linecap="round" stroke-linejoin="round" stroke-width="5"/>
  <path d="m360.8 276.84 52.576 30.362" fill="none" stroke="#000" stroke-linecap="round" stroke-linejoin="round" stroke-width="5"/>
  <path d="m360.8 367.92 52.576 30.362" fill="none" stroke="#000" stroke-linecap="round" stroke-linejoin="round" stroke-width="5"/>
  <path d="m360.8 398.28 52.576 30.362" fill="none" stroke="#000" stroke-linecap="round" stroke-linejoin="round" stroke-width="5"/>
  <path d="m360.8 428.65 52.576 30.362" fill="none" stroke="#000" stroke-linecap="round" stroke-linejoin="round" stroke-width="5"/>
  <path d="m360.8 534.91 52.576 30.362" fill="none" stroke="#000" stroke-linecap="round" stroke-linejoin="round" stroke-width="5"/>
  <path d="m360.8 565.27 52.576 30.362" fill="none" stroke="#000" stroke-linecap="round" stroke-linejoin="round" stroke-width="5"/>
  <g transform="translate(-647.47 -235.38)" fill="#fff" stroke="#000" stroke-linecap="round" stroke-linejoin="round" stroke-width="4.2539">
   <path transform="matrix(0 -.96571 1.4306 0 363.2 1083.7)" d="m552.35 507.58a7.6715 4.4291 0 1 1 -15.343 0 7.6715 4.4291 0 1 1 15.343 0z"/>
   <path transform="matrix(0 -.96571 1.4306 0 382.14 1094.7)" d="m552.35 507.58a7.6715 4.4291 0 1 1 -15.343 0 7.6715 4.4291 0 1 1 15.343 0z"/>
  </g>
  <path transform="matrix(0 -.96571 1.4306 0 -284.27 939.16)" d="m552.35 507.58a7.6715 4.4291 0 1 1 -15.343 0 7.6715 4.4291 0 1 1 15.343 0z" fill="#fff" stroke="#000" stroke-linecap="round" stroke-linejoin="round" stroke-width="4.2539"/>
  <path transform="matrix(0 -.96571 1.4306 0 -265.34 950.09)" d="m552.35 507.58a7.6715 4.4291 0 1 1 -15.343 0 7.6715 4.4291 0 1 1 15.343 0z" fill="#fff" stroke="#000" stroke-linecap="round" stroke-linejoin="round" stroke-width="4.2539"/>
  <path transform="matrix(0 -.96571 1.4306 0 -284.27 969.41)" d="m552.35 507.58a7.6715 4.4291 0 1 1 -15.343 0 7.6715 4.4291 0 1 1 15.343 0z" fill="#fff" stroke="#000" stroke-linecap="round" stroke-linejoin="round" stroke-width="4.2539"/>
  <path transform="matrix(0 -.96571 1.4306 0 -265.34 980.34)" d="m552.35 507.58a7.6715 4.4291 0 1 1 -15.343 0 7.6715 4.4291 0 1 1 15.343 0z" fill="#fff" stroke="#000" stroke-linecap="round" stroke-linejoin="round" stroke-width="4.2539"/>
  <path transform="matrix(0 -.96571 1.4306 0 -284.27 1000.2)" d="m552.35 507.58a7.6715 4.4291 0 1 1 -15.343 0 7.6715 4.4291 0 1 1 15.343 0z" fill="#fff" stroke="#000" stroke-linecap="round" stroke-linejoin="round" stroke-width="4.2539"/>
  <path transform="matrix(0 -.96571 1.4306 0 -265.34 1011.1)" d="m552.35 507.58a7.6715 4.4291 0 1 1 -15.343 0 7.6715 4.4291 0 1 1 15.343 0z" fill="#fff" stroke="#000" stroke-linecap="round" stroke-linejoin="round" stroke-width="4.2539"/>
  <path transform="matrix(0 -.96571 1.4306 0 -284.27 1105.7)" d="m552.35 507.58a7.6715 4.4291 0 1 1 -15.343 0 7.6715 4.4291 0 1 1 15.343 0z" fill="#fff" stroke="#000" stroke-linecap="round" stroke-linejoin="round" stroke-width="4.2539"/>
  <path transform="matrix(0 -.96571 1.4306 0 -265.34 1116.7)" d="m552.35 507.58a7.6715 4.4291 0 1 1 -15.343 0 7.6715 4.4291 0 1 1 15.343 0z" fill="#fff" stroke="#000" stroke-linecap="round" stroke-linejoin="round" stroke-width="4.2539"/>
  <path transform="matrix(0 -.96571 1.4306 0 -284.27 1138.8)" d="m552.35 507.58a7.6715 4.4291 0 1 1 -15.343 0 7.6715 4.4291 0 1 1 15.343 0z" fill="#fff" stroke="#000" stroke-linecap="round" stroke-linejoin="round" stroke-width="4.2539"/>
  <path transform="matrix(0 -.96571 1.4306 0 -265.34 1149.7)" d="m552.35 507.58a7.6715 4.4291 0 1 1 -15.343 0 7.6715 4.4291 0 1 1 15.343 0z" fill="#fff" stroke="#000" stroke-linecap="round" stroke-linejoin="round" stroke-width="4.2539"/>
  <path transform="matrix(0 -2.4984 3.7011 0 -1436.7 1940.5)" d="m552.35 507.58a7.6715 4.4291 0 1 1 -15.343 0 7.6715 4.4291 0 1 1 15.343 0z" fill="url(#c)"/>
  <path transform="matrix(0 -2.4984 3.7011 0 -1436.7 1973.4)" d="m552.35 507.58a7.6715 4.4291 0 1 1 -15.343 0 7.6715 4.4291 0 1 1 15.343 0z" fill="url(#c)"/>
  <path transform="matrix(0 -2.4984 3.7011 0 -1417.9 1951.4)" d="m552.35 507.58a7.6715 4.4291 0 1 1 -15.343 0 7.6715 4.4291 0 1 1 15.343 0z" fill="url(#b)"/>
  <path transform="matrix(0 -2.4984 3.7011 0 -1417.8 1984.6)" d="m552.35 507.58a7.6715 4.4291 0 1 1 -15.343 0 7.6715 4.4291 0 1 1 15.343 0z" fill="url(#b)"/>
  <path transform="matrix(0 -2.4984 3.7011 0 -1417.8 1846.1)" d="m552.35 507.58a7.6715 4.4291 0 1 1 -15.343 0 7.6715 4.4291 0 1 1 15.343 0z" fill="url(#b)"/>
  <path transform="matrix(0 -2.4984 3.7011 0 -1436.8 1835)" d="m552.35 507.58a7.6715 4.4291 0 1 1 -15.343 0 7.6715 4.4291 0 1 1 15.343 0z" fill="url(#c)"/>
  <path transform="matrix(0 -2.4984 3.7011 0 -1417.8 1815.1)" d="m552.35 507.58a7.6715 4.4291 0 1 1 -15.343 0 7.6715 4.4291 0 1 1 15.343 0z" fill="url(#b)"/>
  <path transform="matrix(0 -2.4984 3.7011 0 -1436.7 1804.3)" d="m552.35 507.58a7.6715 4.4291 0 1 1 -15.343 0 7.6715 4.4291 0 1 1 15.343 0z" fill="url(#c)"/>
  <path transform="matrix(0 -2.4984 3.7011 0 -1436.7 1774.2)" d="m552.35 507.58a7.6715 4.4291 0 1 1 -15.343 0 7.6715 4.4291 0 1 1 15.343 0z" fill="url(#c)"/>
  <path transform="matrix(0 -2.4984 3.7011 0 -1417.8 1784.9)" d="m552.35 507.58a7.6715 4.4291 0 1 1 -15.343 0 7.6715 4.4291 0 1 1 15.343 0z" fill="url(#b)"/>
  <path transform="matrix(0 -2.4984 3.7011 0 -1417.9 1694.1)" d="m552.35 507.58a7.6715 4.4291 0 1 1 -15.343 0 7.6715 4.4291 0 1 1 15.343 0z" fill="url(#b)"/>
  <path transform="matrix(0 -2.4984 3.7011 0 -1436.7 1683.2)" d="m552.35 507.58a7.6715 4.4291 0 1 1 -15.343 0 7.6715 4.4291 0 1 1 15.343 0z" fill="url(#c)"/>
  <path d="m549.3 216.23-242.44 3.6943v478.35h241.8l0.64087-482.04z" fill="#fff" fill-opacity=".4902" fill-rule="evenodd" stroke="#000" stroke-linecap="round" stroke-linejoin="round" stroke-width="5"/>
 </g>
</svg>
