<?xml version='1.0' encoding='utf-8'?>
<svg xmlns="http://www.w3.org/2000/svg" width="210mm" height="297mm" viewBox="0 0 210 297" version="1.1" id="svg8"> <title id="title896">SSD Symbol</title> <defs id="defs2"/> <metadata id="metadata5"> </metadata> <g id="layer1"> <g id="g853"> <rect ry="7.9374809" y="50.40065" x="37.640388" height="179.87526" width="129.28281" id="rect839" style="opacity:1;fill:#cccccc;fill-opacity:1;fill-rule:nonzero;stroke:#000000;stroke-width:0.39061612;stroke-miterlimit:4;stroke-dasharray:none;stroke-dashoffset:0;stroke-opacity:1"/> <path id="rect815" d="m 49.032814,52.827413 c -4.96797,0 -8.967412,3.999444 -8.967412,8.967411 V 218.485 c 0,4.96796 3.999442,8.96741 8.967412,8.96741 H 154.31837 c 4.96797,0 8.96742,-3.99945 8.96742,-8.96741 V 61.794824 c 0,-4.967967 -3.99945,-8.967411 -8.96742,-8.967411 z m -0.635622,3.108854 a 3.2072344,3.2072344 0 0 1 3.207041,3.207041 3.2072344,3.2072344 0 0 1 -3.207041,3.207554 3.2072344,3.2072344 0 0 1 -3.207554,-3.207554 3.2072344,3.2072344 0 0 1 3.207554,-3.207041 z m 105.584768,0.64544 a 3.2072344,3.2072344 0 0 1 3.20704,3.207039 3.2072344,3.2072344 0 0 1 -3.20704,3.207038 3.2072344,3.2072344 0 0 1 -3.20704,-3.207038 3.2072344,3.2072344 0 0 1 3.20704,-3.207039 z M 48.585811,216.38745 a 3.2072344,3.2072344 0 0 1 3.207557,3.20704 3.2072344,3.2072344 0 0 1 -3.207557,3.20704 3.2072344,3.2072344 0 0 1 -3.207038,-3.20704 3.2072344,3.2072344 0 0 1 3.207038,-3.20704 z m 105.594589,0.4005 a 3.2072344,3.2072344 0 0 1 3.20756,3.20755 3.2072344,3.2072344 0 0 1 -3.20756,3.20704 3.2072344,3.2072344 0 0 1 -3.20704,-3.20704 3.2072344,3.2072344 0 0 1 3.20704,-3.20755 z" style="opacity:1;fill:#1a1a1a;fill-opacity:1;fill-rule:nonzero;stroke:#000000;stroke-width:2;stroke-miterlimit:4;stroke-dasharray:none;stroke-dashoffset:0;stroke-opacity:1"/> <g transform="matrix(0.74632607,0,0,0.75312619,21.615861,55.206674)" id="g878"> <rect style="opacity:1;fill:#ffffff;fill-opacity:1;fill-rule:nonzero;stroke:#000000;stroke-width:2.09161186;stroke-miterlimit:4;stroke-dasharray:none;stroke-dashoffset:0;stroke-opacity:1" id="rect827" width="86.158043" height="8.7572517" x="66.593025" y="220.04913" ry="4.3786259"/> <rect style="opacity:1;fill:#000000;fill-opacity:1;fill-rule:nonzero;stroke:#000000;stroke-width:0;stroke-miterlimit:4;stroke-dasharray:none;stroke-dashoffset:0;stroke-opacity:1" id="rect829" width="2.0045209" height="10.088679" x="146.9613" y="219.13599" ry="2.6091411"/> <rect ry="2.6091411" y="219.23048" x="143.70961" height="10.088679" width="2.0045209" id="rect840" style="opacity:1;fill:#000000;fill-opacity:1;fill-rule:nonzero;stroke:#000000;stroke-width:0;stroke-miterlimit:4;stroke-dasharray:none;stroke-dashoffset:0;stroke-opacity:1"/> <rect ry="2.6091411" y="219.37222" x="140.44121" height="10.088679" width="2.0045209" id="rect842" style="opacity:1;fill:#000000;fill-opacity:1;fill-rule:nonzero;stroke:#000000;stroke-width:0;stroke-miterlimit:4;stroke-dasharray:none;stroke-dashoffset:0;stroke-opacity:1"/> <rect style="opacity:1;fill:#000000;fill-opacity:1;fill-rule:nonzero;stroke:#000000;stroke-width:0;stroke-miterlimit:4;stroke-dasharray:none;stroke-dashoffset:0;stroke-opacity:1" id="rect844" width="2.0045209" height="10.088679" x="137.18951" y="219.46672" ry="2.6091411"/> <rect ry="2.4881787" y="219.41472" x="80.054398" height="9.6209574" width="2.0045209" id="rect846" style="opacity:1;fill:#000000;fill-opacity:1;fill-rule:nonzero;stroke:#000000;stroke-width:0;stroke-miterlimit:4;stroke-dasharray:none;stroke-dashoffset:0;stroke-opacity:1"/> <rect style="opacity:1;fill:#000000;fill-opacity:1;fill-rule:nonzero;stroke:#000000;stroke-width:0;stroke-miterlimit:4;stroke-dasharray:none;stroke-dashoffset:0;stroke-opacity:1" id="rect848" width="2.0045209" height="9.8882275" x="76.802704" y="219.24194" ry="2.5573001"/> <rect style="opacity:1;fill:#000000;fill-opacity:1;fill-rule:nonzero;stroke:#000000;stroke-width:0;stroke-miterlimit:4;stroke-dasharray:none;stroke-dashoffset:0;stroke-opacity:1" id="rect850" width="2.0045209" height="10.088679" x="73.534302" y="219.18323" ry="2.6091411"/> <rect ry="2.6091411" y="219.27773" x="70.282608" height="10.088679" width="2.0045209" id="rect852" style="opacity:1;fill:#000000;fill-opacity:1;fill-rule:nonzero;stroke:#000000;stroke-width:0;stroke-miterlimit:4;stroke-dasharray:none;stroke-dashoffset:0;stroke-opacity:1"/> <rect style="opacity:1;fill:#000000;fill-opacity:1;fill-rule:nonzero;stroke:#000000;stroke-width:0;stroke-miterlimit:4;stroke-dasharray:none;stroke-dashoffset:0;stroke-opacity:1" id="rect854" width="2.0045209" height="9.7545929" x="93.661537" y="219.47008" ry="2.5227394"/> <rect ry="2.6091411" y="219.23048" x="90.409843" height="10.088679" width="2.0045209" id="rect856" style="opacity:1;fill:#000000;fill-opacity:1;fill-rule:nonzero;stroke:#000000;stroke-width:0;stroke-miterlimit:4;stroke-dasharray:none;stroke-dashoffset:0;stroke-opacity:1"/> <rect ry="2.6091411" y="219.37222" x="87.141441" height="10.088679" width="2.0045209" id="rect858" style="opacity:1;fill:#000000;fill-opacity:1;fill-rule:nonzero;stroke:#000000;stroke-width:0;stroke-miterlimit:4;stroke-dasharray:none;stroke-dashoffset:0;stroke-opacity:1"/> <rect style="opacity:1;fill:#000000;fill-opacity:1;fill-rule:nonzero;stroke:#000000;stroke-width:0;stroke-miterlimit:4;stroke-dasharray:none;stroke-dashoffset:0;stroke-opacity:1" id="rect860" width="2.0045209" height="10.088679" x="83.889748" y="219.46672" ry="2.6091411"/> <rect rx="0" style="opacity:1;fill:#000000;fill-opacity:1;fill-rule:nonzero;stroke:#000000;stroke-width:3.98060322;stroke-miterlimit:4;stroke-dasharray:none;stroke-dashoffset:0;stroke-opacity:1" id="rect862" width="29.515558" height="6.6150742" x="100.39613" y="220.95569" ry="2.1570895"/> <rect ry="2.6091411" y="219.53314" x="133.78743" height="10.088679" width="2.0045209" id="rect880" style="opacity:1;fill:#000000;fill-opacity:1;fill-rule:nonzero;stroke:#000000;stroke-width:0;stroke-miterlimit:4;stroke-dasharray:none;stroke-dashoffset:0;stroke-opacity:1"/> </g> <text id="text884" y="147.25333" x="47.166447" style="font-style:normal;font-weight:normal;font-size:10.58333302px;line-height:6.61458302px;font-family:sans-serif;letter-spacing:0px;word-spacing:0px;fill:#ffffff;fill-opacity:1;stroke:none;stroke-width:0.40000001;stroke-linecap:butt;stroke-linejoin:miter;stroke-miterlimit:4;stroke-dasharray:none;stroke-opacity:1"><tspan dx="0" style="font-style:normal;font-variant:normal;font-weight:normal;font-stretch:normal;font-size:50.79999924px;font-family:Tahoma;-inkscape-font-specification:Tahoma;letter-spacing:4.26243782px;fill:#ffffff;stroke-width:0.40000001;stroke-miterlimit:4;stroke-dasharray:none" y="147.25333" x="47.166447" id="tspan882">SSD</tspan></text> </g> </g> </svg>