<?xml version="1.0" encoding="UTF-8"?>
<svg viewBox="0 0 503.66528 792.65039" xmlns="http://www.w3.org/2000/svg">
 <g transform="translate(-128.63 -127)" stroke="#000">
  <path d="m129.4 140.82 315.9-13.321-9.515 791.65-287.35-49.478c-2.8172-59.63-11.838-118.84-7.9968-178.36 6.9654-41.756-4.4564-84.262-8.0718-126.63-5.7786-141.17-1.8061-282.6-2.9615-423.86z" fill="#b8bab7" fill-rule="evenodd"/>
  <path d="m444.35 127.5 187.45 53.284-11.418 538.55-184.59 199.82 8.5635-791.65z" fill="#9a9792" fill-rule="evenodd"/>
  <path d="m161.76 157.95 241.68-9.515 1.903 333.03-245.49-1.903 1.903-321.61z" fill="none"/>
  <path d="m163.66 157.95 7.612 317.8v3.806l-11.418-1.903 3.806-319.7z" fill="#8c8b78" fill-rule="evenodd"/>
  <path d="m165.56 239.78h237.88" fill="none"/>
  <path d="m166.86 319.67 236.83 1.3456" fill="none"/>
  <path d="m168.88 398.39 235.48 6.7281" fill="none"/>
  <path d="m227.41 497.96 0.67281 47.097 175.6 1.3456 0.67282-49.115-176.95 0.6728z" fill="none"/>
  <path d="m234.81 563.23 164.84 0.67282 0.67282 18.839-164.84-0.67281-0.67281-18.839z" fill="none"/>
  <path d="m343.81 582.07c-4.143 6.3788-7.9243 13.46-14.512 17.675-4.357 2.0178-9.1864 2.5023-13.814 3.5844-4.4674-0.20858-8.5224-2.3578-12.869-3.1737-3.7809-1.4428-5.8282-5.1937-8.625-7.8785-2.5319-2.8439-4.9383-5.8193-6.9351-9.0683 4.1264-1.2639 8.4659 0.07485 12.661-0.61988l44.094-0.51875z" fill="#77848a" fill-rule="evenodd"/>
  <path d="m217.32 822.26c14.173-11.44 33.51-12.85 50.949-10.944 26.22 1.6619 53.187 11.034 71.146 30.926 6.7127 7.325 13.144 17.632 9.5808 27.877-3.5551 7.8855-12.954 9.6727-20.491 11.669-18.153 4.0356-37.179 4.9204-55.394 0.71526-9.4768-1.7183-18.393-5.6938-26.108-11.436-11.632-8.1048-22.371-17.584-31.841-28.107-3.9369-6.5563-0.69231-14.425 2.1581-20.698z" fill="#d4d6d1" fill-rule="evenodd"/>
  <path d="m146 658.09c28.048 17.501 62.304 15.076 93.691 20.574 29.539 3.7048 59.141 0.86765 88.514-5.1403 23.292-12.866 39.489-30.424 57.59-49.201 7.5296-9.9195 15.469-18.497 20.584-28.804" fill="none"/>
  <path d="m205.01 669.5 3.3641 1.3456 2.0184 3.3641-1.3456 2.0184-6.0553 2.0184c-1.9071-1.0634-3.3858-2.7481-4.5518-4.5678-0.18924-0.70788-0.35768-1.4938-0.05-2.1944 0.79918-0.51344 1.8292-0.40282 2.6343-0.90295 1.3078-0.43599 2.686-0.61892 3.986-1.0814z" fill="#d4d6d1" fill-rule="evenodd"/>
  <path d="m252.31 669.53 5.3825 4.0369 2.6912 4.7097-1.3456 4.7097-4.7097 2.6912c-4.897-0.3645-9.8468-0.50673-14.646-1.6429-1.6288 0.03836-3.2069-1.0608-3.7573-2.5904-1.5259-1.8192-2.6951-4.0496-2.8326-6.4557 0.46817-1.4313 1.709-2.3788 2.5721-3.5564 5.2053-2.3924 11.081-1.8565 16.645-1.9021z" fill="#d4d6d1" fill-rule="evenodd"/>
  <path d="m220.68 669.61 6.0553 1.3456 2.6913 3.3641v2.6912l-3.3641 3.3641h-7.401c-1.4669-1.8046-3.0546-3.5961-3.8779-5.8075-0.80349-0.58073-0.75055-1.9449 0.05369-2.5012 1.056-1.4542 2.8604-2.2616 4.6394-2.24 0.40286-0.06167 0.80494-0.12976 1.2033-0.21635z" fill="#d4d6d1" fill-rule="evenodd"/>
  <path d="m140.28 743.53c28.048 17.501 62.304 15.076 93.691 20.574 29.539 3.7048 59.141 0.86765 88.514-5.1403 28.002-3.4464 45.545-8.2212 63.646-26.998 7.5296-9.9195 23.542-33.972 28.658-44.279" fill="none"/>
  <path d="m356.86 594.18h7.3557l1.8389 3.3641-4.2908 3.364h-6.7427l-1.8389-3.364 3.6778-3.3641z" fill="#d4d6d1" fill-rule="evenodd" stroke-width=".95449"/>
  <path d="m170.89 508.73 2.6912 0.67282 1.3456 2.6912-0.67282 4.0369-3.3641 1.3456-4.0369-4.0369 4.0369-4.7097z" fill="#77848a" fill-rule="evenodd"/>
  <path d="m557.76 594.85c4.0369-2.6913 39.696-26.913 39.696-26.913l0.67282 21.53-41.042 24.894 0.67281-19.512z" fill="#746f6c" fill-rule="evenodd"/>
  <path d="m555.74 628.49 43.617-28.816-1.2302 16.032-41.714 26.913-0.67281-14.129z" fill="#746f6c" fill-rule="evenodd"/>
  <path d="m556.42 654.73 40.369-28.258 1.3456 16.82-40.369 27.259-1.3456-15.821z" fill="#767070" fill-rule="evenodd"/>
  <path d="m557.76 687.02 39.023-29.162 2.0184 15.033-40.369 32.295-0.67281-18.166z" fill="#746f6c" fill-rule="evenodd"/>
  <path d="m467.61 230.18-0.67282-61.226 153.4 37.005" fill="none"/>
  <path d="m460.53 637.51v216.94-216.94z" fill="none"/>
  <path d="m154.07 499.98 32.295 0.67281v26.24" fill="none"/>
 </g>
</svg>
