<?xml version="1.0" encoding="UTF-8"?>
<svg viewBox="0 0 1152 868" xmlns="http://www.w3.org/2000/svg">
 <g fill-rule="evenodd">
  <path d="m1038 280h2q0 1 1 0h1q1-1 4 6 2 8 3 10v17h-1v1h-2v-6l-1-2q-1-1-1-1t-2-7l-2-7 1-1v-2h-1v-2q0-2-2-4-1-3 0-2z" fill="#454545" stroke="#454545"/>
  <path d="m169 600l4-1q1 0 1 1 0 0-1 0v1l-11 7q-10 8-11 8v1q-1 0-3 1t-2 0l1-1q1 0 1-1v-2h1v-2h2v-1q1 0 7-5 8-4 11-6z" fill="#e1dbd4" stroke="#e1dbd4"/>
  <path d="m300 701l25-17h1t0 2q0 1 0 2v1t-1 1l-24 16q-24 16-25 17l-1 1h-2v1h-1v1h-1v1h-1v1h-2v-2h1v-1h1v-3h1v-1h1v-1h1l1-1q1-1 26-18z" fill="#e6e1db" stroke="#e6e1db"/>
  <path d="m1009 272l1-7 2 2q3 1 4 2l2 2q2 1 2 2h1v1l1 2q2 2 3 2t5 6q4 7 6 16t2 18v13l-1 1v2q-1 1 0 2v1h-2q-1 0-1 2-1 2-2 2t-2 2l-2 1v1h-1v1h-1v1h-6q-6-1-9-1l-3-1q0-1-8-6l-7-5q-1-1-1-2h-1q-1-1-1-1l-1-3q-1-3 5-10t7-12q1-4 2-8v-6l1-2v-2q2-3 2-4v-1t1-1v-3q1 0 2-7z" fill="#fafafa" stroke="#fafafa"/>
  <path d="m662 437h1v3q-1 1-24 17l-24 17h-3l-1 1-1 1h-4l1-1 1-1h3v-1h1v-1h1l8-6q7-6 8-7 0-1 1-2l1-1h1v-1h1v-1h1l2-1 1-1h2l1-1 1-1 11-6q10-6 10-7z" fill="#474747" stroke="#474747"/>
  <path d="m1020 269h1l1 1q1 2 1 2h2q1 0 0-1 0-1 1-1t4 6q4 6 5 6 1 1 1 2v1h1v1h1v1q0 1 1 1h2v2q-1 0-1 0v1l2 7q2 7 2 7v5q0 6-1 6t-1 4-1 6l-1 2v3l-1 1h-1v1h-1v-1l1-1v-13q0-9-2-18t-6-16q-4-6-5-6t-3-2l-1-2v-1h-1q0-1-2-2l-2-2v-1q1-2 2 0 2 0 2 1z" fill="#404040" stroke="#404040"/>
  <path d="m1008 346v-1l3 1q3 0 9 1h8l1-1h2l3 1q2 1 0 1-1 2-1 2h-1q-1 0-8 0h-8l-1-1-1-1h-3l-1-1q-1-1-2-1z" fill="#545454" stroke="#545454"/>
  <path d="m532 364h1l-3 4q-4 3-4 4 0 2-1 4v10q1 6 2 9t2 4l1 1v1l2 2q2 2 2 2l6 9q6 9 10 12 2 4 3 4v1l-1 1q-2 0 3 5t5 5v1h1v1h1v1h1v1h1v3h-1v1h-1l-1-1-1-1h-1v-1h-1v-1h-1v-1h-1v1t-1-1-4-2-8-7l-5-6v-3h-1v-1h-1v-1q0-1-10-13-8-12-12-20l-4-7v-1t0-6v-7h1v4l1 4v3l1-2 1-1v-1h2v-1h1v-1l7-6q7-6 8-6z" fill="#7f7f7f" stroke="#7f7f7f"/>
  <path d="m706 486h2v1l1 1q1 0 3 0 2-1 1 0 0 2-3 3-2 1-4 4-1 3-4 4-4 2-5 4-1 1-3 3t-2 4q0 1-3 3t-5 3q-2 2-2 3t1 1q1-1 1 0v2-1t-2 1q-1 0-1-1-1-1-2 0l-1 1h1q1 0 2 1t0 2-3 1q-3-1-3 1t-1 2-1-1q-1-1-1 1t-1 2q-1 1-2 1t-3 1q-3 0-3 1t-1 1l-2 1h-1v1h-1v1h-1v1h-1q-1 1-2 1-2 0-2 1t-2 1q-1 0-4 4-4 4-4 4-1 0-1 1 0 2-1 3h-2v1h-1v1h-8 1l1-1h1v-2h1v-1h1v-2l3-3q2-3 4-3 1-1 10-9 8-9 7-9-2 0-2-1t0-1h1l24-18q25-17 25-18v-1q0-1 0-1z" fill="#535353" stroke="#535353"/>
  <path d="m810 208l4 2q4 3 4 4 0 0 1 1v1h2v1l1 1v1l1 1v1h-1l-1 1h-1v-1h-1v-1h-1v-1h-1v-1q-1 0-2-2l-1-1h-1v-1h-1v-1h-1v-1h-2l-1 1h-1v1l1 1v1l1 1v1h1q1 0 2 1 0 1 0 2h1v1h1v1h1v1h1v1h-1v1h-1v1h-1v-1h-1v-1h-1v-1h-1v-1t-2-1l-2-2v-1h-1v-1h-1v-1h-1v-1h-1v6l2 2q2 2 2 2v1h1v1h1v3h-1v1h-2v-1h-1v-2h-1l-1-1-1-1-1-1v-1h-1v-1h-1v-1h-1v-1h-1v-5h1v-1h1v-1h1v-1h1v-1h1v-1l4-2q4-2 5-2z" fill="#cacaca" stroke="#cacaca"/>
  <path d="m323 447l39-26h1v1h-1v1l1 1-37 26q-36 25-38 28-2 2-1 6 1 5 5 14 6 9 22 33 17 23 18 24 0 1 1 1v1h1v2h1l1 1 1 1v1h-1v2h-2v-3h-1v-1h-1l-2-1q-1 0-1-1-1-2-2-3-2-1-1-2 0-1-2-1-1 0-2-2-2-2-6-8-5-6-6-6t-1-2q0-1-1-1t-1-1-1-1q-1-1-2-3-2-2-2-4-2-2-5-8-3-5-10-8-6-4-6-5v-1h1q1 0 1 0 1-1-2-4l-3-4v-5q0-5 1-7 1-3 3-6 2-2 41-29z" fill="#383838" stroke="#383838"/>
  <path d="m231 623l1 1-5 4q-5 4-6 4h-1l-1 1-1 1h-1v1h-1v1h-1l-1 1h-1v-1l1-1v-1h1v-1h1v-1h1t1-2l2-2h1v-1h1v-4h-1v1h-2l-1 1-2 1h-1l-1 1q-1 1-5 3t-5 1v-1h-1q-1 0-1 1h-1v-1q-1 0-1 0l-5-8q-5-7-5-9 1-3 10-9 10-6 12-5t4 3q2 3 8 12 6 8 7 9zm-22 4q1 0 1 1t-1 1-1-1 1-1z" fill="#4e3d35" stroke="#4e3d35"/>
  <path d="m992 287h1v1l1 1v-1h2v1q0 1 1 3v4q-1 2-2 6-2 4-3 4-2 0-8 4l-7 4v1h-1q0 1-4 5t-6 8l-2 5t-1 1q-1 2-30 22l-29 21h-3q-3-1-7-1-4-2-8-2h-5l-1 1-2 1h-2v-3l1-1v-1h1v-1h1l1-1h1v-3q1 0 1 0v-1h1v-1l50-34q51-35 52-36 1 0 3-3 3-3 4-4z" fill="#686868" stroke="#686868"/>
  <path d="m525 386v-7l1 5q0 4 1 4t5 7 5 9v1h-1q0-1-1-1h-1v1t-2-2l-2-2v-1l-1-1q-1-1-2-4t-2-9z" fill="#b1b1b1" stroke="#b1b1b1"/>
  <path d="m270 534h2l8 10q7 10 7 11h1v1l1 1 1 1v1h1v1h1v2h1l16 20q15 20 16 21l1 1v1h1v1h2v2h-2v-1h-1v2h-1l-1 1h-1v-1h-1v-1l-1-1q-1-1-3-4-3-3-12-15-8-12-12-16-4-3-14-17l-9-14v-1h-1q0-1-1-1v-1l-1-1v-1q0-1-1-1l1-1q1 0 2 0z" fill="#b1b1b0" stroke="#b1b1b0"/>
  <path d="m622 549t1 1-17 14l-18 14h-2v1h-1v1h-1v1h-1v1h-2v-1l1-1v-1h-1v-1l1-1 1-1h1l1-1 1-1 16-10q15-12 16-12h2q1 0 1-1v-1t1-1z" fill="#787878" stroke="#787878"/>
  <path d="m706 486h2v1q0 1-26 19l-25 18h-1t0 1q-1 1-11 8t-13 9l-2 2h-2v1h-1v1h-1v1h-1v-1h-3v-2l1-1 1-1h1v-1h1v-1l40-26q39-26 40-27 0-1 0-1z" fill="#b6b6b6" stroke="#b6b6b6"/>
  <path d="m1040 332v-1t1 1v2q-1 0-1 2-2 1-1 2 1 0-1 3l-2 3 2-1q2-1 4-3t3-2h1v2t-1 0q-1 1-5 6l-5 4h-2t1-2q2 0 0-1l-3-1h-2l-1 1h-2v-1h1v-1h1v-1l2-1q1-2 2-2t3-3q1-4 2-4v-1q0-1 1-1h1q1 0 1 0z" fill="#919191" stroke="#919191"/>
  <path d="m646 266h1v2l-1 1v1h1l1 1v1t-21 13q-20 13-21 14l-2 1q-1 0-1 1h-1q-1 1-1 1h-1t0 1h-2q0 1 0 1-1 0-1 1h-1l-1 1h-2v1h-1v1l-1 1h-1v-2h1v-1h1v-1h-1v-1h1v-1h1v-1l26-17q26-17 26-18t1-1z" fill="#5c5c5c" stroke="#5c5c5c"/>
  <path d="m356 662l1-1q0 1 1 1h2v2t-1 0v1l-2 3q-3 2-3 2v1l-11 7q-11 8-12 8h-1v1h-1v1h-2v2h-2v-1l1-1v-1l-1-1v-2l1-1v-1h2v-1t12-8l11-8h1q0-1 0-1h2v-1h1v-1q1 0 1 0zm-30 22t1 0-1 0z" fill="#ddd8d1" stroke="#ddd8d1"/>
  <path d="m778 327l3-1h1v2l-1 1q-1 1-1 1v1q-1 1-2 1t-4 1-4-2l-2-3v-1h1l1 1h3q3 0 5-1z" fill="#9e9e9e" stroke="#9e9e9e"/>
  <path d="m580 578h1l1 1q1 1 1 1h-1t0 1q-1 1-1 1-1 0-13 8l-12 9v-3q0-1 1-2h1l1-1 1-1h1l9-7q10-7 10-7z" fill="#787878" stroke="#787878"/>
  <path d="m345 698v1l-41 29q-41 28-42 29l-1 1h-1l-1 1-1 1h-1v1h-1v1h-1v-1l-1-1v-1l1-1 1-1v-1h1v-1h-1v-1h1v-1h1q0-1 13-10 13-10 35-25l21-15h1q0-1 0-1l5-1q5-1 7-3 3-2 4-1 2 0 1 1z" fill="#686862" stroke="#686862"/>
  <g fill="#d4d4d4" stroke="#d4d4d4">
   <path d="m384 527l-1-1-1-1v-3l3-3q2-3 5-3 2-2 2 0t-2 3-2 4 4 7 3 6q0 2-2 1-3-1-3-2t-1-1-1-2q-1-2-2-2t-2-1q0-1 0-2z"/>
   <path d="m374 545v-2l2 1q2 0 1 3t-2 5q-1 0-6 0t-8-4-3-8 2-5 6-2q4 0 4 2t-4 3q-4 0-3 3t3 5 4 2q3 0 4-3z"/>
  </g>
  <path d="m689 244h1v2q0 2 1 3h1v2h-1l-1-1h-2l-2 1q-3 1-7 1t-4 1q-1 1-12 8l-11 7v1h-1v1h-1l-1 1h-1l-1-1h-1v-3l1-1 1-1 1-1h2l11-8q11-8 18-10 8-2 9-2z" fill="#4e4e4e" stroke="#4e4e4e"/>
  <path d="m419 516h1v-1l1-1 1-1v-1l-1-1-1-1-3-5q-3-4-3-5 0-2 2-1 2 0 6 6t3 9q-1 4-3 5t-6 1-9-7-3-7q3-1 7 4 4 6 5 6 2 0 3 0z" fill="#d2d2d2" stroke="#d2d2d2"/>
  <path d="m895 142l1 1h1v2h2v1h1q0 1 1 1v1h1l7 6q7 7 8 8 0 1 4 4 3 3 7 8 3 4 6 6 2 3 13 18t11 15v1l1 1 1 1v1l1 1v1l1 1q0 1 1 2l1 2 3 6q3 7 4 11t1 4v3t-1 4l-1 3q-1 1-4 5l-4 4q-1 0-18 13l-18 13h-1q-1 0-15 11l-15 10h-1q0 1-16 12l-16 11h-1l-1 1-1 1h-1v1h-1v1h-2v1h1v1h1v1h-1q0 1-24 17l-24 18h-1l-1 1-1 1h-1v1q-1 1-1 1h-1q-1 0-25 18l-24 16v1h-1q-1 1-1 1h-1t0 1q-1 1-1 1h-1q-1 0-18 12l-16 12h-1l-1 1-1 1h-2v1h-1q0 1 0 1-1 0-1 1h-1q0 1-36 26l-37 25v1h-1v1h-2v1h-1v1h-1q-1 0-1 1h-2q-1 0-1-1t-12 7l-11 7v1h-1v1h-1v1h-1v1h-1v1h-1v1t1 0v1h-1q0 1 0 1-1 0-6 4l-6 4q-1 0-2 1-1-1-6 2-6 2-6 3t-6 4l-5 4h-1l-1 1-1 1v1h-1q-1 1-14 9l-13 10h-1l-1 1-1 1h-1v1h-1v1h-1t-14 9l-14 9v1h-1v1h-1l-1 1q-1 1-1 1t-1 0v1q-1 0-19 13l-18 12v1h-1v1h-1l-1 1-1 1h-1v1h-1v1h1v1l-7 6q-8 5-9 6l-1 1h-1v1h-1v1h-1l-1 1-1 1h-1 6l1-1 1-1h1l5-4q6-3 6-4t4-3 11-7q7-6 7-6h1l1-1 1-1h1v-1h1v-1h2l31-22q30-22 31-22h1t0-1h1l1-1h1v-1h1v-1h2v-1l42-29q42-30 43-30v-1h1l1-1h1l1-1 1-1h1l33-23q32-23 38-27 4-3 5-4h2l1-1 1-1h1v-1h1v-1l17-12q18-12 18-12h1v-1h1v-1h2l1-1 1-1 24-17q24-17 24-17v-1h1l1-1h2v-1h1v-1h2v-1h1l35-25q35-26 35-26h1q1 0 1 0v-1t1-1h2v-1h1v-1h2l16-12q16-12 17-12v-1h1l1-1h1v-1h1v-1h2v-1h1v-1l14-9q13-9 14-10 0 0 1-1 1 0 1 0v-1l4-3q4-2 4-3t1-1 1-1 1-1h1q2-1 2 1 0 3 4 1t5-1 1 1h1v1h1v1l1 2q1 3 0 5l-1 2v1h-1 3v-1h1v-1h1l1-1 1-1h1v-1h1l2-2q3-2 4-5 0-3 1-4v-8h1v2h2v2l1 1 1 1-1 12q-1 12 0 11t1-2h1v3q-1 0-1 0v2q0 1-2 4v2l-1 2v2h-1v2h-4v-1h-1v-3q-1-2-1-3v-1h-2v1h-1q0 1-1 1v1t-1 1h-1v1h-1v1h-2v-2h1v-1h1v-1h1t0-1h1q0-1 1-1h1v-2l1-1v-1h-3v1h-1v1h-2v1h-1v1h-1q-1 0-24 15-22 15-24 16-1 2-4 4-2 1-27 21l-25 19v1q0 1 0 1v1q0 1-1 2v1h-1l-1 1h-1v1h-2q0 1-4 3l-3 3h-1q0 1-2 1l-1 2q-1 0-9 6-9 5-9 6-1 1-12 9l-12 9h-1l-1 1-1 1h-1v1h-1v1h-2v1h-1q-1 1-3 1-2 2-21 15t-19 14-3 3-24 16l-21 15v1h-1l-1 1h-1v-1q0-1 1-1 1-1 2-2v-1h-4l-1 1q-1 1-3 3-3 3-6 4l-2 2h-2t0 1q-1 1-40 27l-40 26v1h-1v1h-1l-1 1-1 1h-1q-1 0-43 30l-43 30v1h-1v1h-2v1h-1q-1 1-35 25l-35 24q-1 0-1 0v1t-1 1l-21 14q-22 15-22 15v1h-2l-1 1-1 1h-1v1h-1v3q0 1 0 1v1h1q1 1 1 4v2h-3l-1-1-1-1h-1l-2-1-1-1h-2v-1h-1v-1h-1v-1h-1v-2h-1v-1q-1 0-1 0 0-1 1-4 1-2 0-2l-1-1v-1l-1-1-1-1v-1h-1v-1h-1v-1h-1q0-1-7-9t-8-8-24-27l-23-27q-1-1-1-1v-1t-1 0v-1h-1v-1l-1-1q-1-1-16-21l-16-20v-2l-1-3v-2l-1-1q0-2-1-2t-2-3q0-3-1-3t-2-2-8-13-7-16q1-5 2-5t1-1l1-1v-2l1-1v-1h1v-1l1-1h4t1 1l6 4q6 4 9 9 3 6 5 8 0 2 2 4 1 2 3 3 2 0 2 3 0 2 1 2t2 1 2 1 1 2q-1 1 2 5 3 3 5 5 1 2 2 2 2 0 2 1-1 1 1 2 1 1 2 3 0 1 1 1l2 1h3t1 1 1 1l11 14q11 14 12 14t4 5q4 5 6 7 3 2 7 0 4 0 5-2 2-1 2-2 0-2 3-3t3-2q1-1 4-5 4-5 6-6 3 0 2-1t1-1q2-1 2-2t1-1 2-2q2-2 1-3 0-1 1-1 2 0 2-1 1-2 3-2 1 0 5-4 3-4 4-5 2 0 2-2t2-2q1 0 1-1t1-1 1-1 1-1q2 0 2-2 1-1 5-4 5-2 4-3 0 0-1 0 0 1 0 0 0-2 4-4 4-3 5-4 0-1 3-3 3-3 4-3 2 0 2-1-1-1 0-2 1 0 2-2 0-1 2-3 2-1 4-2 2-2 3-3 0-1 2-2 3-1 3-3 0-1 1-2 1 0 2-1 0-1 2-1t2-2q0-1 1-2 2 0 2-1t2-1q2-1 2-2 1-2 3-4 3-2 2-3 0-1 2-1t3-3q0-3 3-5 3-1 3-2 1-2 4-3 4-2 4-3t2-1q2-1 1-1-1-1 1-2 2-2 4-4 2-3 4-4t3-3q0-2 2-3 3 0 4-4 2-3 5-4 2 0 3 0t2 0h3l13 11q13 11 21 15 7 2 14 2 8 0 9 0h5l1-1 1-1h3l24-17q23-16 24-17l13-8q13-9 16-12 4-4 4-4v-1t1-1q1 0 1 0v-1l21-15q21-14 21-15h1q1 0 1-1 0 0 1 0v-1h1l1-1h1l1-1 1-1 11-8q10-8 12-9 3-2 3-5 0-2-1-3v-1h1q1 0 1-2v-2h2v-2q0-2 1-2t2-2 1-2h1v-9h-1q0 1-1 0v-1t1-1l1-1v-2h-1l-3 1q-2 1-5 1h-3l-1-1h-1v-4l1-1q0-1 3-2 2-2 2-4 0-3-5-9l-5-6v-1t-1 0q-1-1-1-1v-1t-1 0v-1q-1-1-4-5t-17-16l-14-14h-1l-1-1-1-1h-1l-1-1-1-1h3v-2h2v1h1v1h1v1h1v1l4 3q5 3 7 3t2 1q1 1 2-2t3-3q1 0 1-1t1-1 1-1 2-1q1-1 1-2 0 0 2-1 1-1 2-1 2-1 3-3 1-3 2-3 1-1 3-2t3-4q2-2 4-3t2 0q1 1 2-2t2-2q1 0 1-1 0-2 2-3t4-4q3-3 4-3t1-1 2-1q1 1 2-2v-2h2v2q1 1 1 1v1h1v1h1v1h1v1h1v1l1 1 1 1 1 1h1v2h1v1h2v-1h1v-3h-1v-1h-1v-1t-2-2l-2-2v-6h1v1h1v1h1v1h1v1l2 2q2 1 2 1v1h1v1h1v1h1v1h1v-1h1v-1h1v-1h-1v-1h-1v-1h-1v-1h-1q0-1 0-2-1-1-2-1h-1v-1l-1-1v-1l-1-1v-1h1l1-1h2v1h1v1h1v1h1l1 1q1 2 2 2v1h1v1h1v1h1v1h1l1-1h1v-1l-1-1v-1l-1-1v-1h-2v-1q-1-1-1-1 0-1-4-4l-4-2-2-1-1-1h1l2-1q2-1 2-3t2-2 2 1 1-2 3-3 1-1 1-2 2-2 2-1 2-2q0-1 1-2 1 0 1 2 0 1 1-1 1-1-1-3-1 0 2-2 4-2 4-3t1-1q1-1 1-3 0-1 0 0 1 2 2 2t2-3q0-4 2-5t4-3 3-4 5-4q3-1 4-2 0-2 1-2 1-1 3-3 1-3 2-3t2-2q2-2 3-2 1-1 3-4 3-2 6-3 2-1 5 0t6 3 4 2zm-26 36l-3-3v-3q0-3 2-4 1-2 6-1 4 1 7 4t2 5q-1 3-1 4-1 2-6 2-4 0-7-4zm-13-2q2 0 2 1 1 1 0 1-2 1-2 4t4 7q2 4 1 4-1 1-5-3t-4-8q0-3 1-4 1-2 3-2zm-16 12q4 0 4 2t-2 2q-3 0-4 1 0 2 1 3 2 2 2 3 1 1 3 1t2-2q1-2 4-2 2 0 2 2t-2 4-6 2-6-3q-3-3-4-6 0-3 0-5 2-1 6-2zm31 19l-3-2v-3h1v-1h1v-1h1l1-1 1-1q1 0 3-2 3-2 8-2 4 0 5 4 1 3 4 4 3 0 4 4t-1 6q-2 1-7 4-6 4-11-2-4-5-7-7zm-50-8q1-1 6 5 5 4 6 7 1 2-1 3-1 0-1-1t-1-1-1-1q-1-1-2-2-2-1-3-3t-2-4q-2-3-1-3zm33 26v-1h-1v-1h-1v-10h1v-1h1v-1l4-3q4-2 6-2t3 2q0 1-5 4-4 4-4 7 1 3 2 3t2 1q0 1 4 1 3 0 4-1 2-1 1-2 0-1-3-1-3 2-5 0-1-2-1-3t4-3q5-2 10 3 4 5 0 8t-9 5q-5 0-9-2t-4-3zm-24 12l-1-1h-1v-5q1-3 2-5 2 0 6 0 5 0 6 3t4 4q4 1 4 4 2 3-1 6-2 3-7 3-6 0-7-3t-1-4-2-1q-1 0-2-1zm-63 7t0-1q1 0 1 1 0 0-1 0zm113 122l-1 1q-1 0-1-1t1 0q1 0 1 0zm-5 3q0-1 0-1 1 0 1 0 0 1-1 1zm-292 160q1 0 1 1t-1 1-1-1 1-1zm-148 20q1 0 1 0 0 1 0 1-1 0-1-1zm-100 15h-1v-1q1-1 2 0 0 1-1 1z" fill="#323232" stroke="#323232"/>
  <path d="m420 376h1v1l-1 1v2l-1 1v1h-1t-25 18l-25 17h-1v1h-2v1h-1v1h-2v1l-39 26q-39 27-41 29-2 3-3 6-1 2-1 7v5l-1 1q-1 1-5 4-4 2-6 4t-3 2v1h-1v1h-1v1h-1v2h-1l-1-1v-1h-1v-1h-1v-1q0-1-4-6-4-6-7-13t-2-7q1-1 31-21l29-20h1v-1h1l1-1 1-1h1v-1h1v-1l35-22q34-22 34-23t1-1h1v-1h1v-1h1l1-1h1v2h-1v1h-1 4v1h-1v1h-2l-1 1q-1 1-41 28l-41 28v1h-1q-1 0-1 0v1t-1 1l-7 4q-6 5-7 5 0 1-1 1h-1v1h-1v1h-1v1h-1v1h-2v2h1l1-1 1-1h3l1-1 1-1 8-4q7-4 7-5h1l1-1h1l59-38q59-38 59-38z" fill="#b6b6b6" stroke="#b6b6b6"/>
  <path d="m621 544h1v2h3v1h-1q0 1-1 1l-1 1q-1 1-1 1h-1t-1 1l-1 1q-1 0-16 12l-16 10-1 1-1 1h-1l-1 1-1 1h-1t-10 7l-9 7h-1l-1 1-1 1h-1q-1 1-1 2h-1q-1 0-9 6l-8 6h-1v1h-1v1h-2v1h-1v1h-2l-1-1v-1h1v-1h1v-1h1v-1h-1v-1h2v-1h1v-1l43-30q42-30 43-30z" fill="#bcbcbc" stroke="#bcbcbc"/>
  <path d="m490 309h2v1t1 0v1h-1q0 1 0 1-1 0-1 1t-51 35l-52 34v1h-1v1h-2v1h-1t-1 1q-1 0-1 0v1h-1l-1 1h-1q-1 0-1 1t-34 23l-35 22v1h-1v1h-1l-1 1-1 1h-1v1h-1v-1l1-2v-2h-1l1-1 1-1h1l92-62q91-60 92-61z" fill="#606060" stroke="#606060"/>
  <path d="m531 612h1l2 1q1 1 1 1-1 0-1 0v1t-1 1q-1 0-11 7l-10 7t-1-1l-1-1q0-1 1-1l10-7q10-8 10-8z" fill="#7a7a7a" stroke="#7a7a7a"/>
  <path d="m584 532t-1 1h-1q0 1-10 7-10 8-12 10-3 3-4 3h-1v-1q1-1 1-2v-2l1-1 1-1h1l5-4q6-3 6-4t7-5 7-3q-1 2 0 2z" fill="#444" stroke="#444"/>
  <path d="m277 495l1-1 3 4q3 5 2 5h-1v-1t-1 0h-4q-1 0-1 0v1t-1 1h-2v1h-1v1h-1l-3 4q-4 3-4 3v1h-1v-1h-1v1h-1v-1h-1v-1h-1t-1-2v-1h1q1-1 1-1h1v-1h1v-1h1v-1q1 0 3-2t6-4q4-3 5-4z" fill="#696969" stroke="#696969"/>
  <path d="m845 99v-2l9 2q8 3 26 12 18 10 24 15 6 4 7 4v1h1v1h2v1h1v1h1l1 1 1 1h-3l-1-1-2-1h-1q-1 0-2-1l-1-1v1l1 2q1 1 0 1t-2 0v1q-1 0-3 1l-3 2h-1q0-1-1-1h-1q0-1 0-1-1 0-16-11t-26-14l-10-4v-1l-1-4q-1-3 0-5z" fill="#bbb" stroke="#bbb"/>
  <path d="m627 502h1v1q-1 1-1 2v1q-1 0-43 30l-42 29v1h-2v1h-1v1h-1v1h-1v1h-2v-1l1-1v-2h2v-1h1v-1h1l7-6q7-4 7-5h1q1 0 1-1l13-9q13-9 13-10h1q1-1 1-1l6-4q5-4 6-4 0 0 1 0v-1l11-8q12-7 12-8l3-2q3-1 3-2t1-1z" fill="#7c7c7c" stroke="#7c7c7c"/>
  <path d="m908 133v-1l1 1q1 1 2 1h1l2 1 1 1h3l5 4q5 3 5 4t8 8 10 8q0 1 1 1v1h1v1l1 1 1 1v1h1l1 1 2 3q3 4 3 4h1l10 14q10 14 18 28 8 15 11 24 3 10 4 11v8h-1v1h-6v-1l-1-2q-1-2-1-3t-2-1q-1 1-6-1-4-2-6 1l-3 3h-2v-1h-1v-10t0-5-3-14l-4-8q-1-1-1-1v-1t-1 0v-2l-1-1v-1q0-1-13-19-12-18-13-18t-5-5q-5-6-17-17l-12-11v-1h-1v-1l1-1h1v-1l1-1v-1h3q1 0 2 0t0-1l-1-2z" fill="#d3d3d3" stroke="#d3d3d3"/>
  <path d="m590 304h1v1h1v1l-1 1v1h-1t0 1q-1 1-36 23l-35 24h-2l-1 1-1 1h-1l-1 1h-1v-2h1l1-1h1v-1h1v-1h2v-1l20-13q19-14 20-14h1v-1h1v-1h2v-1h1v-1h2l13-9q12-9 12-9z" fill="#494949" stroke="#494949"/>
  <path d="m689 411h1l-1 1q-1 2-1 4v1h-1v1h-1v1h-1v1h-1v1l-1 1v1h-2q-2 1-3 1t-1 1-4 4l-5 3v1h-1v1h-1v1h-1v1h-1v1h-2q0 1-10 7l-11 6-1 1-1 1h-4l-1-1h-1v-1h2v-1h1v-1h1l1-1 1-1h1l21-15q21-15 22-15l3-2q2-1 2-2t1-1z" fill="#747474" stroke="#747474"/>
  <path d="m467 613h1l-1 2q-1 1-1 2h-1v1h1t-7 6q-7 5-11 7t-4 3-6 4l-5 4h-1l-1 1-1 1h-6 1l1-1 1-1h1v-1h1v-1h1l1-1q1-1 9-6l7-6h1v-1h2l1-1 1-1h1v-1h1v-1l6-3q5-3 6-4 0-1 1-2z" fill="#787878" stroke="#787878"/>
  <path d="m761 299v-1l4 4q3 3 7 8t3 7q0 1-3 3-3 1-3 2l-1 1v5q-1 0-4-4l-3-4h1v1h1v1h1t0 1l1-3q1-2 1-5t0-7q-2-5-3-6l-1-2t-1-1z" fill="#505050" stroke="#505050"/>
  <path d="m964 333v4l1 1v1l4-1q4 0 4 0t-69 48l-69 48v1h-1v-2h-1v-1h-1l-1 1-1 1h-2v-2h2v-1h1v-1h1l1-1q1-1 2-2v-1l28-20q29-20 29-20v-1l6-4q6-3 6-4l29-21q29-20 30-22 1-1 1-1z" fill="#363636" stroke="#363636"/>
  <path d="m834 426h1v1q-1 1-2 2l-1 1h-1v1h-1v1q0 1 1 1l1-1h1v1h1v3t-188 131l-188 131v1h-1v1h-1v1h-1v1h-2l-1-1v-3l1-2v-1h1v-2h1v-1l39-28q39-28 55-39 15-11 20-17 4-6 7-8 2-2 2-2 0-2 2-4 1-2 2-2 0 0 1-1t2-2 3-2q2 0 2-1 0-2 1-2 1 1 1 0 0-2 4-3 3-2 4-3 0-2 1-1 1 0 4-3 2-2 3-3 2 0 2-1 0-2 4-4t8-6q5-4 6-4h9v-1h1v-1h2q1-1 1-3 0-1 1-1 0 0 4-4 3-4 4-4 2 0 2-1t2-1q1 0 2-1h1v2h3l2-1h1l3-2q4-1 13-7 9-5 9-6h3l2-1h1l1-1 1-1 69-48q69-48 69-48zm-226 148q1 1 0 0zm-11 8t0-1q1 0 1 1 0 0-1 0zm-141 112q1 0 1 1t-1 1-1-1 1-1zm-2 5t1 0q0 1-1 1 0 0 0-1z" fill="#3d3d3d" stroke="#3d3d3d"/>
  <path d="m465 471q4 1 1 2-4 1-4 0-1-2 3-2z" fill="#595959" stroke="#595959"/>
  <path d="m753 314l-2-4h2l2 2q3 3 3 3v1h1v1h1v2l1 1 3 4q3 4 4 4l2 3q1 3 4 2t4-1 2-1q1 1 1 0h1v9h-1t-1 2-2 2-1 2v2h-2v2l-1 3v-1h-1v-1l-1-1v-1h-1v-3l-1-2v-3l-1-1-1-1v-1q0-1-1-2-1-2-6-10l-5-8v-1t-3-3z" fill="#404040" stroke="#404040"/>
  <path d="m343 678l11-7v1q0 1-2 5t-5 5q-3 2-7 6-4 3-6 5-2 3-2 3h-1v1h-1v1h-2v2q0 1 0 2 0 0-1 0v1l-21 15q-22 15-35 25-13 9-13 10h-1v1h-1v1t-19 12q-18 11-22 11-4-2-6-5l-2-4v-1l-1-1v-1l-1-1-1-1v-1l-1-1-1-1v-1h1v-1h1v1h1v1h1v1l1 1v1h2q2 0 2-1 1-1 2-1l1-1v2q-1 2 0 2l1-1h1v-1h1v-1h2v-1h1v-1t7-4 24-16l17-12q1 0 1-1h1q0-1 0-1h2v-1h1v-1h2l1-1q1-1 25-17l24-16h1t0-1q1-1 2-1h1v-1h1v-1h1q1 0 12-8z" fill="#9a968d" stroke="#9a968d"/>
  <path d="m508 301h1v1q-1 1-2 2l-2 2h2q-1 1-59 40l-58 40h-1l-1 1-1 1h-3l-1 1h-1v-2l1-1h1v-1h1v-1h2v-1h1v-1l52-34q51-34 51-35 1 0 1-1 0 0 1 0v-1h1l1-1h1l1-1 1-1 4-3q5-3 6-4z" fill="#b9b9b9" stroke="#b9b9b9"/>
  <path d="m674 185h1v1q0 1-7 7-8 6-8 7t-12 10q-12 10-15 10l-3 2h-2v2h-1l-1 1h-1v-1h-2v-1h-1v-2l1-1h1v-1h1v-1h1l24-16q23-16 24-17z" fill="#555" stroke="#555"/>
  <path d="m841 110v-1h5l10 4q11 3 26 14t16 11 0 1h1q0 1 1 1 0 0 0 1h1v3l-1 2h-1v-1h-2v-2h-1l-1-1q-1 0-4-2t-6-3-5 0q-3 1-6 3-2 3-3 4-1 0-3 2-1 2-2 2t-2 3q-2 2-3 3-1 0-3 3t-4 4-3 3q-1 3-2 2-1 0-3 4t-4 4q-1 1-1 2t-1 1-2-2q0-1 0 0 0 2-1 3-1 0-1 1t-4 3q-3 2-2 2 2 2 1 3-1 2-1 1 0-2-1-2-1 1-1 2 0 2-2 2t-2 1-1 1-1 2-2 2-2 3q-1 3-4 3-2 0-2 1t-2 2l-2 1h-1l1 1 2 1q-1 0-5 2l-4 2v1h-1v1h-1v1h-1v1h-1v1h-1v4q-1-1-2-1t-1 2q-1 1-2 0-2 0-2 1t-1 1-4 3q-2 3-4 4t-2 3q0 1-1 1-1-1-2 2t-3 3q-3 0-4 2 0 2-1 1t-1 1q0 1-2 2-2 0-2 2t-3 4q-3 1-3 2 0 2-4 3-3 1-3 3t-3 2q-2 0-3 3t-3 3h-2t-5-4l-5-4v-1h-1v-1h-1v-1h-1v-1h-2v2h-3q-1 0-3-2h-2l-3-1h-2v-1h7v-1h-1v-3h-2v-1h-1v-1h-1q-2 0-3-1t-10-2l-9-1h-1q-1 0-9 2-7 2-18 10l-11 8h-2l-1 1-1 1h-1t0 1q-1 1-27 18l-26 17v1h-1v1h-2t-12 9l-13 9h-2v1h-1v1h-2v1h-1v1h-1v-3h1v-1h2v-2h2v-1h1l2-1q2-2 2-4 0-1 2-1t2-1q0-2 6-6 7-5 7-6 0-2 1-2 2-1 2-3 1-3 5-6 3-4 4-5 0-1 3-2 2-2 3-3 0-1 2-3 3-1 2-2 0-1 1-2 0 0 0-1t3-3 4-4q0-1 3-4 2-2 4-4 2-3 4-4 1-1 1-2-1-1-1-1l9-6q9-7 9-7h1q1 0 1 0v-1h1l1-1 2-1q2-1 2-2 0 0 1-1 1 0 1 0v-1l13-8q13-8 67-45 55-36 56-37 1 0 1-1t17-11q17-11 26-13t8-3q-1 0-1-1zm1 63q0-1 0-1 0 1 0 1zm-23 22q0-1 0-1 1 0 1 0 0 1-1 1zm-67 61t0-1 0 1zm-12 11q0-1 0-1 0 1 0 1z" fill="#4e4e4e" stroke="#4e4e4e"/>
  <path d="m555 596h1q0 1 1 2-1 0-1 0v1q0 1-10 7-10 7-10 8t-2 2h-1v-1q1-1 0-2l-1-1h1v-1h1v-1h2v-1h1v-1h1l8-6q8-6 9-6z" fill="#787878" stroke="#787878"/>
  <path d="m176 736l-12-16h1q1 0 1 0h8l10 13q10 13 11 14l1 1v1h1v1h1v1l1 1 1 1v1h1v1h1v2h1v1h1q1 0 1 1v1h-3v1l1 1 1 1v1l1 1 1 1v1l1 1v1h-1v2l-1-1v-1h-3v-1h-1v-1h-1v-1h-1q-1-1-1-1v-1t-3-3-5-5q-2-4-14-20z" fill="#7e7a73" stroke="#7e7a73"/>
  <path d="m338 636h3v1h1v-1q0-1 1-1h1q0 1 0 1h1t1 1q0 1 0 1h1l3 4q2 3 3 3t5 5q5 6 8 8 4 2 4 3t4 5q4 3 4 4 0 0 1 1v1l1 1v1h-2q-2 0-6 4-4 5-3 6 1 0 1 1h1v1h1v2h-2v-1h-1v-1h-1v-2h-2v1l-1 1-1 1v-2q0-2-1-3h-1v-1q0-1-1-3t-1-8l-1-5h1q0-1 0-1t0-1v-1q0-1-1-1h-2v-1q-1 0-1 0v-1h-1v-1q-1 0-9-10l-9-11h-1q0-1 0-1t2 0z" fill="#444343" stroke="#444343"/>
  <path d="m654 229q-1 1-1 1h-1t0 1h-1q-1 1-3 2l-2 2q-1 1-1 1h-1t-9 7l-9 6q-1 1-22 15l-22 14-1 1-1 1h-1v1h-1v1h-2v-2h1v-1h1v-1h-2v-2h2l7-5q7-5 7-5v-1h1q1 0 1-1l16-10q16-10 24-16 9-6 10-6h1v-1h1v1h1v-1h1l4-3q4-2 4-1t-1 1-1 1z" fill="#3d3d3d" stroke="#3d3d3d"/>
  <path d="m221 623h1v4h-1v1h-1l-2 2q-1 2-1 2h-1v1l-1 1v1q-1 0-1 1 0 0-1 0v1q-1 0-1 1-1 0-4 1-2 0-2-1v-2h-1t-1-1q-1 0-1-1-1-1-2-2-1 0-1-1v-1h4l3-2q3 0 5 0 1 0 2-1l1-1h1l2-1 1-1h2v-1zm-15 8q2-1 2 0t-2 1q-1 0 0-1z" fill="#987c55" stroke="#987c55"/>
  <path d="m748 371l-1 1q-1 2-1 4v1h-1v1h-1v1l-1 1v1h-1q0 1 0 1-1 0-1 1h-1q0 1-21 15l-21 15q-1 1-1 1h-1t0 1h-1q-1 1-3 2l-3 1v1h-1v1h-2v1h-1v1h-1v1h-1v-1l1-1v-1h1v-1h1v-1h1v-1h1v-2h-1v-1h1q1 0 1-1v-1q1 0 1 0v-1l16-11q15-10 16-11h1v-1h1l1-1 1-1h1v-1h1v-1l10-6q9-6 10-7z" fill="#656565" stroke="#656565"/>
  <path d="m617 230q-1 1-1 1v1t-1 0h-1t-50 36l-51 34v1h-1v1h-2l-1 1-1 1h-3v-1h1v-1h1v-1h1v-1h1v-1h1v-1h1l49-33q49-33 49-33h1l2-2q3-2 4-2t1 0z" fill="#b5b5b5" stroke="#b5b5b5"/>
  <path d="m708 445h1l-1 1q0 2 0 2h1q-1 1-5 4-6 4-38 27l-33 23h-1l-1 1-1 1h-1l-1 1h-1v-2h1v-1h1v-1h1v-1h2v-1h1v-1l35-24q36-26 37-26t1-1q1-1 2-2z" fill="#7a7a7a" stroke="#7a7a7a"/>
  <path d="m439 490v-2h-1q-1 0-2 1 0 1-3 1h-3l2-3q3-3 6-4 4-1 4 7 1 9 5 7 4-3 6-2t-3 5q-6 4-9 3t-3-6 1-7z" fill="#d1d1d1" stroke="#d1d1d1"/>
  <path d="m259 730l11-8v4t-1 0v1q-1 0-1 1l-17 12q-17 12-24 16t-7 4v1h-1v1h-2v1h-1v1h-4v-1l1-1h1v-1l1-1h1v-1h1v-1h1q1 0 6-4 5-3 5-4t3-3q4-1 6-3l2-2q1 0 1-1h1l1-1h1v-1h1v-1h1q2 0 13-8z" fill="#e7e3dd" stroke="#e7e3dd"/>
  <g fill="#b1b1b1" stroke="#b1b1b1">
   <path d="m594 264q0 1-1 1 0 1-7 5l-8 6t-1 0v1h-1q0 1 0 1h-1q-1 0-45 30l-43 28v1h-1v1h-2t0 1q-1 1-1 1h-1t0 1h-1q-1 1-28 19l-27 18h-2v1h-1v1h-2v1h-1v1h-1v-1l1-1v-2l1-1v-1l1-1 1-1 81-52q82-54 82-54l3-2q3-2 4-2t1 0z"/>
   <path d="m962 264h1q1 0 1 2 0 1-2 3l-2 2q-1 1-1 1h-1t0 1q-1 1-14 10l-14 9v1h-1v1h-2v1h-1v1h-1l-1 1h-1v-1l1-2v-1l1-1 1-1v-1l18-13q17-13 18-13z"/>
  </g>
  <path d="m293 652h1v2q0 2-1 2-1 1-1 2h-2q-1 0-1-2t1-2l1-1h1q0-1 1-1z" fill="#e6e2dc" stroke="#e6e2dc"/>
  <path d="m225 746l16-10h3q1 0 1 1t-1 1-1 1h-1v1t-1 0v1q-1 0-1 1l-2 2q-2 2-6 3-3 2-3 3t-5 4q-5 4-6 4h-1v1h-1v1h-1l-1 1t-1 1q-1 0-1 0v1t-3 1h-2v-1l-1-1v-1h-1v-1l-1-1v-1h-1v-1h-1v-2h-1v-1h1v-1h1v-1h1v1l1 1q1 1 2 2 2 0 18-10z" fill="#71625a" stroke="#71625a"/>
  <path d="m838 98l4-1h3v2q-1 2 0 5l1 4v1h-2v-1h-4v-1q0-1 1-5v-3h-1l-1-1h-1z" fill="#868686" stroke="#868686"/>
  <path d="m762 308v-8h1t1 1l1 5q1 6 1 9t-1 5l-1 3q0-1 0-1v-3l-1-2-1-2v-7z" fill="#7b7b7b" stroke="#7b7b7b"/>
  <path d="m625 503h1q0 1-3 2l-3 2q0 1-11 8t-11 8-1 1h-1v-3h1v-1h1v-1h1v-1h1v-1h1v-1l11-7q12-8 12-7t1 1z" fill="#474747" stroke="#474747"/>
  <path d="m963 216t1 1q0 1 0 1h1l4 8q3 9 3 14t0 5-1-4-4-11l-3-6-1-2q-1-1-1-2l-1-1h1v-1q0-2 1-2z" fill="#626262" stroke="#626262"/>
  <path d="m460 479l-2-3v-4q0-4 3-5 2-1 5-1 4 0 6 2t1 4q0 2-3 4-4 2-3 3 0 1 4 1 3-1 5-1t0 2q-1 3-4 3-4 2-7 0t-5-5zm5-8q4 1 1 2-4 1-4 0-1-2 3-2z" fill="#d0d0d0" stroke="#d0d0d0"/>
  <path d="m531 607h2v1h-1v1h-1v1h-1v1l1 1t-10 8l-10 7q-1 0-1 1 0 0-10 6-9 6-9 7t-2 2l-3 1-2 2q-2 2-3 2v1h-1q-1 1-6 4l-5 4q-1 0-3 1l-2 2h-1v1h-1v1h-2v2h-2v-2h1v-1h-1v-1l1-1v-1h1v-1l1-1 35-24q34-24 35-25z" fill="#bababa" stroke="#bababa"/>
  <path d="m552 431h1l11 10q11 11 14 13 2 3 3 3h1q0 1 0 1h1l1 1q0 1 1 2l1 1v1h1v1l3 2q3 2 9 2h6-9q-9 0-12-1-4-1-12-9l-9-8v-1h1v-3h-1v-1h-1v-1h-1v-1h-1v-1t-2-2q-2-1-5-6-4-5-3-5t1 1q1 1 1 1z" fill="#898989" stroke="#898989"/>
  <path d="m534 405v-1h1q1 0 1 1h1l16 16q16 17 19 19 2 2 3 2v1h1v1l2-2q1-2 2-3 1 0 0-1 0-2 2-1 2 0 3 1 1 0 1 0v-1h1v1h1v-2h1v1h1v2l1 1q1 2 1 2l1 2 1 1v1h1l-3 2q-2 2-2 4v2l-2 1-3 1q-1 1-1 1v1h-1q-1-1-1-1h-1q-1 0-3-3-3-2-14-13l-11-10v-1q-1 0-3-4-4-3-10-12l-6-9z" fill="#bfbfbf" stroke="#bfbfbf"/>
  <path d="m490 594l1 1q1 1 1 1t-10 8l-11 8h-2l-1 1t-1 1q-1 0-1 0v1t-6 4l-6 3v1h-1v1h-1l-1 1-1 1h-2v1h-1v-1h-1v-1h1v-1h1l1-1 1-1h1v-1h1v-1l18-12q18-13 19-13h1q0-1 0-1z" fill="#474747" stroke="#474747"/>
  <path d="m719 477l1-1h4l-1 2q-1 2-1 2-1 0-1 1h-1v1h2q3 0 4 4 0 3-2 4-3 0-3 3-1 3-1 3-2 0-1 2 0 1-2 1-1 0-2 1-1 2-1 1-1-1-1 1 0 0-1 1-1 0-1 1t-6 6q-5 4-6 5 0 1-1 1-2 0-2 2 0 1-1 1-1 1-1 1h-1l-1 1h-1v2h-1l-2 1h1v1h-1q0 1-9 6-9 6-13 7l-3 2h-1l-2 1h-3v-3h1v-1h1v-1h1v-1l1-1v-1h3q4-1 6-3 2-3 3-4 1 0 4 0t4-1 0-2-2-1h-1l2-1q2-1 2-2t5-5q5-3 7-6 2-4 2-4 0 1 1-1t5-5q5-2 6-4 0-2 1-2 1-1 2-2 0-1-1-2 0 0-1-1h-1v-1l2-2q3-1 6-4 2-2 3-3zm0 10q0-1 1-1 2 0 2 1t-2 1q-1 0-1-1zm-35 33v2-2t0-1 0 1zm-11 9q0-1 0-1 1 0 1 0 0 1-1 1z" fill="#4a4a4a" stroke="#4a4a4a"/>
  <path d="m830 237l-1-1h-1v-5q1-3 2-5 2 0 6 0 5 0 6 3t4 4q4 1 4 4 2 3-1 6-2 3-7 3-6 0-7-3t-1-4-2-1q-1 0-2-1zm5-7q3-1 3 2 0 2-3 2t-3-2 3-2zm7 7q3-1 3 2 1 2-3 2-3 1-3-2 1-2 3-2z" fill="#d2d2d2" stroke="#d2d2d2"/>
  <path d="m484 338h1v1q-1 1-2 2l-2 1 1 1 1 1t-57 38l-58 38v1h-1v1h-1l-1 1-1 1h-1l-1-1v-1h1v-1h-1v-1h2v-1h1v-1h2v-1h1l25-17q25-18 25-18h2v-1h1v-1h2v-1h1v-1h2l28-20q28-18 28-19 1-1 2-1z" fill="#454545" stroke="#454545"/>
  <path d="m769 348v-2h1v2h1v1h1v1l1 1v1t1 1v3q0 3-3 5-2 1-12 9l-11 8-1 1-1 1h-1v1h-1v1h-1l-1 1h-1v-1l1-1v-1h1v-1h1v-1h1v-1h1v-1q0-2 1-4l1-1 9-6q9-6 9-7 2-2 2-6 0-3 1-4z" fill="#4f4f4f" stroke="#4f4f4f"/>
  <path d="m992 342l1-2v-1q1 0 1 1v1l1 1q1 0 2 1 0 1 5 3t6 3l1 1h3l2 1h2l1 1q1 0 2 1l1 1h3v1h-1l-1 1h-7q-5 0-6 0-2 0-8-4l-7-3v-1l-1-1v-1h-1t-1-2h-1v-1h-1v-2q0-2-2-4-1-2 2 1 4 4 4 4zm-1 2t0-1q1 0 1 1h-1z" fill="#737373" stroke="#737373"/>
  <path d="m239 585l3-3 3 2q3 0 4 2t1 4 2 3q1 1 0 3 0 2-2 3t-1-1q1-3-3-2-4 2-2 0 3-2 3-3h1v-1q0-1-1-2-1-2-6-1l-5 1t0-1 3-4zm8 1q1 0 1 0-1 0-1 0z" fill="#766559" stroke="#766559"/>
  <path d="m803 379h1v3t-24 17l-24 17-1 1-1 1h-2v1h-1v1h-3v-1l1-1h1v-1l1-1h1v-1h1v-1l25-17q24-17 25-18z" fill="#797979" stroke="#797979"/>
  <path d="m269 690l2-1h2l-1 2q0 2 1 2l1 1-7 5q-7 5-8 6h-1v-1q0-1-1-1t-1-1v-1h-1q0-1-1-2l-2-2h1q1 1 3 1h1v-1q1 0 6-3l5-4h1z" fill="#a88858" stroke="#a88858"/>
  <path d="m511 627q1 0 1 1v2t-10 8q-11 8-16 10t-5 2v-2q1 0 3-2l2-2 3-1q2-1 2-2t9-7q10-6 10-6 0-1 1-1z" fill="#797979" stroke="#797979"/>
  <path d="m192 585l6-3v2q1 1-11 9-12 7-13 8h-1v-3q1-1 2-2l1-2h2v-1h1q0-1 4-3 3-2 9-5z" fill="#ddd7d0" stroke="#ddd7d0"/>
  <path d="m925 290h1v1l-1 1-1 1v1l-1 2v2q-1 0-17 12l-16 12h-2v1h-1v1h-1v1h-1v1h-2v-1l1-1v-2h2l1-1h1v-2l4-3q5-2 5-3t-1-1-1-1l15-10q14-11 15-11z" fill="#8f8f8f" stroke="#8f8f8f"/>
  <path d="m484 461v-1l-1-1-1-1 1-4q1-4 5-5 3-1 3 0-1 2-3 4-2 3 2 8 4 6 5 6t1 1q-1 2-3 2t-5-4q-4-5-4-5z" fill="#d0d0d0" stroke="#d0d0d0"/>
  <path d="m116 636l2-2h1t0 1h-1v1h-1v1h1v1l2 3q3 4 4 4t4 4q2 3 3 4t1 2v1h-1q-1-1-2 0t-1 1q-1-1-1-1-1 0-1-1t-2-1q-2-1-2-2t-3-4q-3-2-3-1v1t-2-2v-6q0-3 2-4z" fill="#89796f" stroke="#89796f"/>
  <path d="m264 541l16 23q16 24 19 27t3 5 2 6q3 4 5 4 3 1 13 14t11 13 1 1q1 2 2 2 0 0 0 1h1l9 11q8 10 9 10v1h1v1h2v1h1v1h-4v1h-1v1t-2 0l-1 1-1-1q-1 0-30 19t-34 22q-4 2-5 4-1 1-9 7-9 4-12 6-2 1-2 2-1 2-6 4-4 2-4 3-1 1-3 2-1 1-2 1v1q-1 0-1 1h-1l-16 10q-16 10-18 10-1-1-2-2l-1-1v-1h-1v-1l-1-1v-2h-1v-1h-1v-1h-1v-1q-1 0-1-1t-17-22l-16-21v-1l-1-1v-1h-1v-1h-1v-2h-1v-1h-1t-1-3q-1-2-2-2-1-1-4-5-3-5-5-6-2-2-9-12l-7-10q0-1-1-1v-1q-1 0-1 0v-1q0-1-3-5-2-3-3-3t-4-4l-2-3v-1h-1v-1h1v-1h1q0-1 0-1h-1 1q1 0 4-2t3-2q0-2 4-3 3-1 9-5t7-7q1-2 2-2h2t1 1q1 2 11-6l11-7h1q0-1 0-1h1q1 0 13-8 11-7 10-8v-2q1 0 18-12 16-12 21-16t6-3 2-1l1-1h1l1-1t1 0v-1h1l1-1h1l4-3q4-3 6-3 1 0 2 1zm-25 44l3-3 3 2q3 0 4 2t1 4 2 3q1 1 0 3 0 2-2 3t-1-1q1-3-3-2-4 2-2 0 3-2 3-3h1v-1q0-1-1-2-1-2-6-1l-5 1t0-1 3-4zm-8 38l1 1-5 4q-5 4-6 4h-1l-1 1-1 1h-1l-1 1h-1q0 1-1 1 0 0 0 1h-1q-1 0-1 1-1 0-4 1-2 0-2-1v-2h-1t-1-1q-1 0-2-2l-1-2h-1q0-1 0-1l-5-8q-5-7-5-9 1-3 10-9 10-6 12-5t4 3q2 3 8 12 6 8 7 9zm-83-6t1 0q0 1-1 1 0 0 0-1zm-2 1t1 0-1 0zm144 29l4-2 2 1q2 1 3 4 2 2 1 3-1 0 0 1 0 2 1 2v1q1 0 1 1t1 2h1t0 1h-2q0 1 0 1h-1t-1 1v1t-1 0l-2 1q-2 0-2-1 1-1 0-2h-1t-2 0q-2-1-1-2l1-2h-2q-1 0-1-2t1-2l1-1h-1q0-1 0-1-1 0-4 1h-2v-2h1v-1h1t4-3zm-26 18l1 1h1t7 7 8 9q2 2 2 3h1v3h-2q-1 0-1 1l-1 1v1h-1v1h-2l-1 1-1 1h-1l-7 5q-7 5-8 6h-1v-1q0-1-1-1t-1-1v-1h-1q0-1-1-1v-1q-1-1-1-1h-1t0-1v-1t-3-4q-3-3-6-6-4-4-4-6 1-3 9-9t11-7q4 0 5 1z" fill="#d4cdc2" stroke="#d4cdc2"/>
  <path d="m1026 265h-1q-1 1-3 2l-1 2h-1q0-1-2-1-1-2-2 0v1q-1-1-4-2l-2-2v-1t-1-1l-1-1v-6h-1t-1-1v-3h3q3 0 7 2t2 2-1 1q0 1 5 5 4 2 4 3z" fill="#797979" stroke="#797979"/>
  <path d="m704 260h1v1q0 1 0 2h1v1h2l2 2q2 1 2 2 0 0 1 0v1l1 2q0 2 1 3 1 0 1 1h1v1l13 12q13 14 14 14t1 1q1 1 1 1v1h1v1h1v2h1v1h1v1h1l2 4q3 3 3 3v1l5 8q5 8 6 10 1 1 1 2v1l1 1 1 1v3l1 2v2h-1v-2h-2v-2h-1v-1h-1v-1q0-2-4-8-4-7-5-7t-1-1q0-2-3-5t-4-5q-2-1-2-2-1-1-12-12-11-12-21-18t-20-8l-11-1q0-1-8-1h-8v-2h2v-1h1v-1h1l1-1 1-1 5-2q5-2 13-2t11 0q2 1 2-2-1-2 0-2zm2 6q0-1 1 0 1 0 0 1-1 0-1-1zm5 5q0-1 0-1 1 0 1 0 0 1-1 1z" fill="#6c6c6c" stroke="#6c6c6c"/>
  <path d="m294 654v-2h1q1 0 3 3 1 3 2 2h1q1 0 1 1l-1 1q-1 1 1 1h1v1h-1q0 1 0 1h-1v1q0 1-1 1h-1l-2 1q-2 0-2-1 1-1 0-2h-1t-2 0q-2-1-1-2l1-2q0-1 1-2 1 0 1-2zm3 6q1 0 1 0-1 0-1 0z" fill="#93867a" stroke="#93867a"/>
  <path d="m894 311h1q0 1 1 1t1 1-5 3l-4 3v2h-1l-1 1h-2v1q-1 1-13 9l-12 8h-1v1h-1v-1h-1v-1h-1v-1h2v-1h1v-1h1l1-1 1-1h1l16-11q16-11 16-12z" fill="#4e4e4e" stroke="#4e4e4e"/>
  <path d="m379 673v-1h1q1 0 5 4 3 5 4 5v1h1v1h1v1h1v1h1v1h1l1 1h1v-2l1 1q1 0 0 2-1 3-1 4 0 0 1 0v2l1 2v1h1v1h1v2l3 6q2 5 3 6 2 1 0 2-2 2-3 2h-1v1h1v1h2l1 1 1 1h2v1h1v2h-1l-1 1h1l-1 1h-1v1l1 1v1h-2v-1h-1v-1h-2l-1-1q-1-1-8-6-6-6-18-17-11-10-11-11-1-1-2-2l-2-1-1-1-1-1h3v-4h1q1 1 1 3v2l1-1 1-1v-1h2q1 0 1-1-1 0 3-5 4-4 5-4 2 0 2-1zm-9 14q0-1 1-1t1 1v1h-1q-1 0-1-1z" fill="#696969" stroke="#696969"/>
  <path d="m712 270v-2l10 9q11 9 18 17 8 8 8 9v1h1v1h1v1l1 1 1 1v1l1 1h-3v-1h-1v-1h-1v-2h-1v-1h-1v-1t-1-1q0-1-1-1t-14-14l-13-12v-1h-1q0-1-2-2t-2-3z" fill="#565656" stroke="#565656"/>
  <path d="m128 655l2-1t0 1h1q0 1 1 1l7 10q7 10 9 12 2 1 5 6 3 4 4 5 1 0 2 2 1 3 1 3h1v1h1v2h1v1h1v1l1 1v1h-1v-1h-2v1h-2v-1l-1-1-1-1v-1h-1v-1q-1 0-13-17l-12-17h-1v-1h-1v-1t-1-2l-1-1q-1-1-1-1t1-1z" fill="#715f55" stroke="#715f55"/>
  <path d="m842 237q3-1 3 2 1 2-3 2-3 1-3-2 1-2 3-2z" fill="#363636" stroke="#363636"/>
  <path d="m1007 252v2q0 2 0 2h1v6l1 1q1 1 1 1v1l-1 7q-1 7-2 7v1q-1 0 0 0v2q-1 1-1 1 0-1-1-1t0-12l1-12v-4q0-1 1-2z" fill="#7d7d7d" stroke="#7d7d7d"/>
  <path d="m656 524h1q1 0 1 1t-8 9q-8 9-9 10-2 0-4 3l-3 3v2h-1v1h-1v2h-1l-1 1h-2q-1 0-6 4-4 4-8 6t-4 4q0 1-2 1-1 1 0 2 1 2 0 1-2 0-4 1-2 2-3 2-1-1-2 2t-2 2-3 0-2 3-1 2q-2 1-2 2t-1 1-1-1q-1-1-2 0-1 2-2 3t-1 1q-1 0-2 2-2 2-2 4 0 0-2 2-3 2-3 3 0 2-1 2-2 0-5 5-3 4-18 15-16 11-55 39l-39 28v1h-1v1t-1 0v1h-1q-1 1-11 7-9 7-12 8-2 0-7 4-5 2-10 3l-6 1-2-1h-2v-1h1q1 0 3-2 2-1 0-2-1-1-3-6l-3-6v-2h-1v-1h-1v-1l-1-2v-1h1v2h1v1h1v1h1v1h2l1 1 2 1h1l1 1 1 1h3v-2q0-3-1-4h-1v-4 2h1v1h1v1t1 0v1h1v1h2q1 0 14-10l12-9h1q1-1 13-9 12-9 13-11v-2l5-4q5-3 6-4h1v1t5-2 16-10q10-8 10-8l10-7q10-7 11-7h1t0-1q1-1 1-1l11-7q10-7 10-8 1-1 1-1l12-8q11-8 12-8t1 0v-1t1-1h2v-1h1v-1h2l15-12q15-11 15-12 0-2 0-2l1-1q1-1 1-1h1t1-1l1-1q1 0 1-1h2v-1h1v-1h1v-1h2l2-2q3-2 13-9t11-8q0-1 0-1zm-33 26q1 0 1 1t-1 1-1 0q0-2 1-2zm-33 35q0-1 0-1 0 1 0 1z" fill="#525252" stroke="#525252"/>
  <path d="m431 683l11-7v1q0 1 0 1v1l-12 9q-13 10-14 10h-2v-1h-1v-1h-3v-5h1v1l1 2h3l1-1 1-1h1l1-1q1-1 12-8z" fill="#737373" stroke="#737373"/>
  <path d="m666 273h1v1h8q8 0 8 1t1 1q2 0-2 1h-5v3h2l1 1q2 1 2 1h-3q-3 0-5 1t-13 6-14 8-11 9q-9 6-10 6 0 1-2 2-2 0-2 1t-14 10q-12 9-18 11-5 2-6 3 0 1-9 6t-13 7l-5 2h-8v1h-1v1h-2l-1 1h-1v-1h1v-1h1v-1h2v-1h1v-1h2l1-1q1 0 2-2 2-1 11-7t9-7l46-31q45-30 46-31z" fill="#929292" stroke="#929292"/>
  <path d="m522 572q0 1 1 2v1q-1 0-16 11l-15 10h-1l-1-1h-1v-2h1l2-1h1v-1h1v-1l14-9q14-9 14-9z" fill="#4c4c4c" stroke="#4c4c4c"/>
  <path d="m162 701v-1h2v1h1l16 21q17 21 17 22t1 1v1h1v1h1v1h1v2l1 1v2h-1v1h-2v-1l-1-1-1-1v-1h-1v-1h-1v-1l-1-1q-1-1-11-14l-10-13v-1l-1-1-1-1v-1h-1v-1h-1v-1t-2-3l-2-3-1-1q-1-1-2-3l-2-3h1z" fill="#77665a" stroke="#77665a"/>
  <path d="m751 415h1v1q0 1-2 2l-2 2h2t-18 12l-17 12v1h-1v1h-1l-1 1-1 1h-4v-1h1v-1h1v-2h2l1-1 1-1h1l18-13q18-13 19-14z" fill="#777" stroke="#777"/>
  <path d="m872 170q2 0 4 2t3 4q0 2-3 2-2 0-4-1-2-2-2-5 0-2 2-2z" fill="#383838" stroke="#383838"/>
  <path d="m510 385l4 7q4 8 12 20 10 12 10 13v1h1v1h1v3h-1v-1h-1v-1h-1v-1h-1v-1l-1-1-1-1v-1t-5-5l-4-4v-1q-1-1-1-2-1-1-7-10l-5-10h-1v-1h-1v-1h-1v-1h-1v-2h1q1 0 1 1v1l1-2q1-1 1-1z" fill="#8e8e8e" stroke="#8e8e8e"/>
  <path d="m512 362l4-3t1 1h-1t0 1q-1 1-1 1h-1t0 1l-1 3q-1 2-2 4v1h-1v7q0 6 0 6v1t-1 1l-1 2t0-1h-1v-1q-1 0-1 0v-1q0-1 0-7 0-7 0-10 2-2 6-6z" fill="#afafaf" stroke="#afafaf"/>
  <path d="m359 662v-1h1q1 0 0 7 0 7 0 10 2 2 2 3v5h-3l1 1 1 1-7 5q-8 5-8 6h-1q0-1-1-1t-3 1q-3 1-7 2l-5 1-1 1h-1v-1l1-2v-2h2v-1h1v-1h1t4-5q5-5 8-8 4-4 6-4 1-1 3-3 1-3 1-4v-2t3-4l2-4zm-14 34q1 0 1 0-1 0-1 0z" fill="#82817a" stroke="#82817a"/>
  <path d="m1002 295v-1h1l-1 7q-2 7-7 15t-5 10q0 3 1 5t2 3h-1q-1 0-2-2l-2-1v-2h-1v-1h-1v1l-1-1q-1-1-3-4-2-2-2-5l-2-3h1t-1-1h-1v-1l7-4q6-4 8-4 1 0 3-4 1-4 2-6v-1h1v1h4v-1z" fill="#484848" stroke="#484848"/>
  <path d="m883 200q2-1 2 0-1 2-4 4-4 2-4 1-1-1 1-3t5-2z" fill="#414141" stroke="#414141"/>
  <path d="m869 178l-3-3v-3q0-3 2-4 1-2 6-1 4 1 7 4t2 5q-1 3-1 4-1 2-6 2-4 0-7-4zm3-8q2 0 4 2t3 4q0 2-3 2-2 0-4-1-2-2-2-5 0-2 2-2z" fill="#cfcfcf" stroke="#cfcfcf"/>
  <path d="m899 141v-2h1l1 1 17 16q16 17 17 18 0 1 1 1t13 18q13 18 13 19v1l1 1 1 1v1l1 1v1h-2v-1h-1v2h-1v-1l-1-1v-1l-1-1-1-1v-1t-11-15-13-18q-3-2-6-6-4-5-7-8-4-3-4-4-1-1-8-8l-7-6h-1l-1-1q-1 0-1-1v-2q1-1 0-3z" fill="#606060" stroke="#606060"/>
  <path d="m291 454l8-6-1 1q0 1-1 2l-1 1h-1v1h-1v1h2l2-1h1q0 1-7 5l-8 4-1 1-1 1h-3l-1 1-1 1h-1v-2h2v-1h1v-1h1v-1h1v-1h1q1 0 9-6z" fill="#7a7a7a" stroke="#7a7a7a"/>
  <path d="m954 170l-2-3h2l10 12q10 12 20 27 10 16 15 29t6 14l1 1v8l-1-1-1-1v-2h-2v-2h-1v-1q-1-1-4-11-3-9-11-24-8-14-18-28l-10-14h-1t-3-4z" fill="#606060" stroke="#606060"/>
  <path d="m535 567h1v2t-1 1q-1 0-31 22l-31 22h-2v1h-1v1h-1l-1 1-1 1h-2v-1h1v-2l1-1h1v-1l1-1h2l11-8q10-8 10-8l15-10q15-11 16-11l5-4q6-3 7-4z" fill="#7c7c7c" stroke="#7c7c7c"/>
  <path d="m1025 265h1l8 7q7 8 7 8h1v2q-1 0-2 0-2 0-1 3l1 3h1v2l-1 1v-1l-1-1-1-1v-2h-1v-1h-1v-1q0-1-4-6t-6-5l-2-1h-1t-1-2l-1-1 1-2q2-1 3-2z" fill="#5f5f5f" stroke="#5f5f5f"/>
  <path d="m1044 310v-5t1 1l1 2v6h2v-1h1v3q-1 2-4 11t-3 8l-1-1v-1q0-1-1-1h-1v-1q1-1 1-2v-1l1-2q1-2 1-6t1-4 1-6z" fill="#6f6f6f" stroke="#6f6f6f"/>
  <path d="m270 455l33-21h1v2l-1 2v1l-29 20q-30 20-31 21-1 0 2 7t7 13q4 5 4 6v1h1v1h1v1q0 1 0 1h1v1l1 1v1h1v1h1v-1h1v1h1v-1t4-3l3-4h1v-1h1v-1h1v-1h1v-1h2v1l-1 1v1h-1v1h-1v2l-1 1q0 1-1 1t-2 5q0 5 7 16t8 13 2 2 1 3q1 3 2 3t1 2l1 1v2l1 3v2h-1v-2h-1v-1h-1v-1l-1-1-1-1v-1h-1q0-1-7-11l-8-10q0-1-6-8l-6-6v-1h-1v-1h-1l-1-1-1-1-1 1v2h1v1q0 1 1 2h1v2h-2v-2h-1v-1h-1v-1l-1-1q-1-1-9-13t-8-20v-8q0-1 1-1 1-1 33-22z" fill="#565656" stroke="#565656"/>
  <path d="m976 315h2q1 1 1 1h-1l2 3q0 3 2 5 2 3 3 4l1 1 3 5q3 4 4 4v2q1 1 1 1t1 1q0 1-1 1l-1-1h-1v5l1 1v1h-1l-1-1h-1l-1-1-1-1t-5-4q-5-5-7-4h-3q-1-1-1 0h-2q-1 0-3 1h-2v-1l-1-1v-4l2-5q2-4 6-8t4-5zm9 21q0-1 1-1t1 1-1 1-1-1zm3 4t1-1q1 0 1 1-1 0-2 0zm0 3v-1 1z" fill="#2a2a2a" stroke="#2a2a2a"/>
  <path d="m991 285v-1h3v1l-1 1v1h-1q0 1 0 1-1 0-1 1h-1q0 1 0 1h-1v1h-1v1h-1v1h-1q0 1-1 1-1 1-52 36l-50 34v1h-1l-1 1h-1l-1 1-1 1h-1l-1 1h-1v-1l1-1v-1h2l1-1 1-1h1v-1h1l25-19q25-20 27-21 3-2 4-4 2-1 24-16 23-15 24-15h1v-1h1v-1h2v-1h1z" fill="#a6a6a6" stroke="#a6a6a6"/>
  <path d="m584 455l1 1h2l2 1 2 1h1l4-1q5-1 8 0 2 1 6 0 3 0 4 2 1 3 2 3 0 0-6 3l-5 3h-6q-6 0-9-2l-3-2v-1h-1v-1l-1-1q-1-1-2-1-1-1-1-2v-2q1-1 2-1z" fill="#ababab" stroke="#ababab"/>
  <path d="m283 685h1v3h-1q-1 0-1-1h-1v-1q-1 0-1 0 0-1-1-1v-1q-1 0-5-6l-4-6t-3-3l-2-3h1t7 7 8 9q2 2 2 3z" fill="#e5e0d9" stroke="#e5e0d9"/>
  <path d="m524 418l-1-4 4 4q5 5 5 5v1l1 1 1 1v1h1v1h1v1h1v1h1l5 6q5 6 6 5 0-1 1-1t3 3q3 3 3 3v-1h1v1h1v1h1v1h1l1 1 1 1h1l9 8q8 8 12 9 3 1 12 1h9l5-3q6-3 6-3l6-4q5-4 6-4h1v-1h1v-1h1l1-1h2l1 1h2l-1 1-2 1h-1v1h-1v1h-1l-1 1q-1 1-1 2-1 1-8 7l-8 6h-1v1h-1v1h-3l-1 1-1 1h-1q-1 0-9 0-7 0-14-2-8-4-21-15l-13-11v-1h-1v-1h-1v-1h-1v-1h-1v-1t-9-11l-9-10t-2-4z" fill="#676767" stroke="#676767"/>
  <path d="m854 225v-1h-1v-1h-1v-10h1v-1h1v-1l4-3q4-2 6-2t3 2q0 1-5 4-4 4-4 7 1 3 2 3t2 1q0 1 4 1 3 0 4-1 2-1 1-2 0-1-3-1-3 2-5 0-1-2-1-3t4-3q5-2 10 3 4 5 0 8t-9 5q-5 0-9-2t-4-3z" fill="#cdcdcd" stroke="#cdcdcd"/>
  <path d="m1049 312h1q1 0 1 5 1 5 1 5v1q0 1-1 3t-3 7l-2 5v2t-1 0h-1q-1 0-2 2-2 0-4 1l-2 1v-7h2q1-1 0-2v-2q1 1 2 1h1l1 1q0 1 3-8t4-11v-4zm-10 27q-1 0 0 1 0-2 0-1z" fill="#adadad" stroke="#adadad"/>
  <path d="m970 255v5q0 1 1 2-1 1-1 1 0 1-1 1t-1 1-5 5l-5 3 3-3q3-3 3-4 0-2-1-2h-1l4-4q3-4 4-5z" fill="#8a8a8a" stroke="#8a8a8a"/>
  <path d="m439 672l22-16-1 2q-1 2-1 2h-1v1l1 1v1q-1 0-1 1l-5 4q-5 4-6 4h-1l-1 1-1 1h-1v1h-1v1l-11 7q-11 7-12 8l-1 1h-1l-1 1-1 1h-2l-1 1h-1v-5h1l1-1 1-1h2v-1t23-15z" fill="#b8b8b8" stroke="#b8b8b8"/>
  <path d="m889 206q2 0 2 2-1 1-3 3-3 1-4 1-2-1 0-3t5-3z" fill="#424242" stroke="#424242"/>
  <path d="m352 663v1t-1 0v1l-11 8q-12 8-12 8v1h-2v1l-1 1-25 17q-25 17-26 18l-1 1h-1v1h-1v1h-1l-11 8q-11 8-13 8h-1v1h-1v1h-1v1h-1v1h-2v-2h2v-1l1-1v-1h-1l-1-1 1-1 1-1q1 0 2-1 2-1 3-2 0-1 4-3 5-2 6-4 0-1 2-2 3-2 12-6 8-6 9-7 1-2 3-2 1-1 34-23t34-21z" fill="#7b6b62" stroke="#7b6b62"/>
  <path d="m127 656t1 1l1 1q1 2 1 2v1h1v1h1l12 17q12 17 13 17v1h1v1l1 1 1 1v1h1l2 3q1 2 2 3l1 1 2 3q2 3 2 3v1h1v1h1v1l1 1 1 1v1h-7l-1 1h-1v-1h-1q0-1-4-4-2-4-9-12t-9-12-3-4-3-4-5-8q-3-5-4-5t-1-1-3-3q-2-3-3-7l-2-5v-1q0-2-1-4l-1-2v-1q0-1 3 1 3 3 3 4t2 2q2 0 2 1t1 1z" fill="#817b74" stroke="#817b74"/>
  <path d="m469 657v2q-1 2-13 11-12 8-13 9h-1v-1t0-1v-2h1v-1h1l1-1 1-1h1q1 0 6-4l5-4q1 0 1-1h1q0-1 1-1h1v-1h1v-1h1l2-2q2-1 3-1z" fill="#777" stroke="#777"/>
  <path d="m986 329v-1h1v1h1v1q0 1 1 1h1q0 1 0 1h1v1q0 1 1 1h1l7 5q8 5 8 6v1q1 0 2 1l1 1h3l1 1 1 1h2l-1 1h-3l-2-1h-3l-1-1q-1-1-6-3t-5-3q-1-1-2-1l-1-1v-1q0-1-1-1v-1q-1 0-4-4l-3-5z" fill="#c2c2c2" stroke="#c2c2c2"/>
  <path d="m697 413h1v1q0 1-2 2-1 0-4 4-3 3-16 12l-13 8v-3h1v-1h1v-1h1v-1h1v-1h1v-1l5-3q4-3 4-4t1-1 3-1h3v-1h1v-1h1v-1h2v-1h1v-1l3-2q4-2 5-3z" fill="#444" stroke="#444"/>
  <path d="m1049 304v-7l2 8q1 8 1 9v8t-1-5q0-5-1-5h-1v-8z" fill="#6c6c6c" stroke="#6c6c6c"/>
  <path d="m0 434v-434h1152v868h-1152v-434zm948-274h1v1h1v2h1v1h1v1h1v1h1v1l10 12q10 12 20 27 10 16 15 29t6 14l1 1v2h4q2 0 6 2t2 2-1 1q0 1 5 5 4 2 4 3l7 7q7 7 7 8h1q1-1 1 0l3 6q3 5 3 6 0 2 1 4v1l2 8q1 8 1 9v9q0 1-1 3t-3 7l-2 5v2t-1 0q-1 1-5 6l-5 4t-1 1-6 2l-5 2h-1l-1 1h-7q-5 0-6 0-2 0-8-4l-7-3h-1l-1-1h-1l-1-1-1-1t-5-4q-5-5-7-4h-4q0 1-69 49l-68 47v1h-1v1t-188 131l-188 131v1h-1v1h-1l-1 1h-1q0 1 0 1h-1l-19 13q-19 13-22 13h-6v-1h-1v-1h-2l-1-1q-1-1-8-6-6-6-18-17-11-10-11-11-1-1-2-2l-2-1-7 5q-8 5-8 6h-1l-41 29q-41 28-42 29l-1 1h-1l-1 1-1 1h-1v1h-1v1h-1q-1 0-17 12-17 12-20 12-3 2-9-6l-6-8v-1h-1v-2h-1q-1 0-1-1v-1q-1-1-1-1h-1t0-1v-1t-3-3-5-6-14-19l-11-15h-1q0-1 0-1 0-1-4-4-2-4-9-12t-9-12-3-4-3-4-5-8q-3-5-4-5t-1-1-3-3q-2-3-3-7l-2-5v-1q0-2-1-4l-1-2t-2-2v-6q0-3 2-4l2-2h1q1 0 3-2 3 0 4-2 0-1 11-7l10-6v-1q1-2 1-2 0-1 1-1h1v-1t1 0v-1q1 0 7-5 8-4 11-6l4-1v-1q1-1 2-2l1-2h2v-1h1q0-1 4-3 3-2 9-5l6-3q1 0 18-12 16-12 21-16t6-3 2-1l1-1v-1h1l1-1h1v-1q0-1 1-1 1-1 1-2 1-2-8-19t-9-28q0-12 0-14l2-3v-1q0-1 1-1 1-1 33-22l33-21 1-1 1-1h1l92-62q91-60 92-61h1v-1h2v-1h1v-1h1l63-42q62-42 63-43h1q0-1 0-1h1t1-1h1v-1h1l23-16q23-16 24-16h1t0-1h1l65-43q64-42 65-43h1v-1h2l1-1 1-1h2l1-1 1-1 8-2q8-2 17-1t23 7 32 18 24 16 10 8q3 4 12 12 8 8 8 8z" fill="#fefefe" stroke="#fefefe"/>
  <path d="m835 230q3-1 3 2 0 2-3 2t-3-2 3-2z" fill="#3d3d3d" stroke="#3d3d3d"/>
  <path d="m234 482l2-3v7q0 8 8 20t9 13l1 1t0-1l1-1q1 0 1 1v1q0 1-1 1v1h3v2h1l3 6q4 4 4 5h1v1h1v1h1v1h1v1l1 1v1h-1l-1-1h-1v-1h-1v-1l-1 1q-2 1-2 1v1q-1-1-2-1-2 0-6 3l-4 3h-1l-1 1v1h-2l-1 1h-1v-1h1v-1h1v-1h1l1-1q1-1 1-2 1-2-8-19t-9-28q0-12 0-14zm26 55q0-1 2 0 3 1 0 1-2 0-2-1z" fill="#838383" stroke="#838383"/>
  <path d="m264 665l1 1 2 3q3 3 3 3l4 6q4 6 5 6v2h1v1h1v1l-1 2v1h-1v1h-2l-1 1-1 1h-5v-1q0-1 1-1t1-2l1-1h-2l-2 1h-1l-5 4q-5 3-6 3v1h-1q-1 0-2 1v-1t-1 0q-1-1-1-1v-1t-3-4q-3-3-6-6-4-4-4-6 1-3 9-9t11-7q4 0 5 1z" fill="#4a3934" stroke="#4a3934"/>
  <path d="m290 647l4-2 2 1q2 1 3 4 2 2 1 3-1 0 0 1 0 2 1 2v1q0 1 1 1h1q1 1 1 2t-1 1h-1q0 1 0 1h-1t-1 1 0-1-2-6q-2-4-3-4h-2q-1 0-1 1h-2q0-1 0-1-1 0-4 1h-2v-2h1v-1h1t4-3z" fill="#7b6c63" stroke="#7b6c63"/>
  <path d="m255 517l1-1 1 1 1 1h1v1h1v1l6 6q6 7 6 8h-2q-1 0-2 1v1h-1q-1 0-5-6l-3-6h-1v-2h-1q-1-1-1-2v-1q0-1-1-1v-1z" fill="#939393" stroke="#939393"/>
  <path d="m948 160h1v1h1v2h1v1h1v1h1v1h1v1h-2l-1-1h-1v-1l-1-1-1-1v-1h-1v-1q-1 0-1-1-2-1-10-8t-8-8-5-4l-5-4-1-1-1-1h-1v-1h-1v-1h-2v-1h-1v-1q-1 0-7-4-6-5-24-15-18-9-26-12l-9-2h-3l-4 1h1l1 1h1v3q-1 4-1 5v1h4v1h-6l-2-1h-1q-1 0-3-4-1-3-4-4-4-1-13-1h-9v-1h2l1-1 1-1h2l1-1 1-1 8-2q8-2 17-1t23 7 32 18 24 16 10 8q3 4 12 12 8 8 8 8z" fill="#585858" stroke="#585858"/>
  <path d="m871 207l-3-2v-3h1v-1h1v-1h1l1-1 1-1q1 0 3-2 3-2 8-2 4 0 5 4 1 3 4 4 3 0 4 4t-1 6q-2 1-7 4-6 4-11-2-4-5-7-7zm12-7q2-1 2 0-1 2-4 4-4 2-4 1-1-1 1-3t5-2zm6 6q2 0 2 2-1 1-3 3-3 1-4 1-2-1 0-3t5-3z" fill="#d1d1d1" stroke="#d1d1d1"/>
  <path d="m688 246l2-2 9 1q9 1 10 2t3 1h1v1h1v1h2v3h1v1h-7v1h-2q-1 1-2 3l-1 2h-1q-1 0-1 2 1 1 3 2 2 2-3 1-4-1-12-1t-13 2l-5 2-1 1-1 1h-1v1h-1v1h-2v1h-1q-1 1-46 31l-46 31v-1q0-1-1-1l-1 1h-1l-3 1-2 1h-2v-5h1v-1h1v-1h1v-1h1v-1t1-1q1 0 1 0v-1l11-7q11-8 11-9v-2h1v-1h1v1q0 1 1 1 1-1 2-2v-1q1 0 1-1 0 0 0-1h1l1 1t1-1v-1t1-1h1q1 0 1-1l2-1q1-1 20-13t19-14q0-1 1 0 2 0 2 0v-1h1l1-1h1v-1h1v-1l11-7q11-7 12-8 0-1 4-1t7-1l2-1h2l1 1h1v-2h-1q-1-1-3-1-1 0 0-2z" fill="#404040" stroke="#404040"/>
  <path d="m569 325h1v1q0 1-2 2h-1v1h-1v1h-1v1h-1v1l-1 1q0 1 1 1t4 0h4l1-1q1 0 1 1v1q0 1-9 7t-11 7q-1 2-2 2l-1 1h-2v1h-1v1h-2v1h-1v1h-1v1q-1 1-6 4l-5 3h-1q-1 0-8 6l-7 6v1h-1v1h-2v1l-1 1-1 2v-3l-1-4v-5q1-2 2-4l1-3t1-1q1 0 1 0v-1t1-1h1t1-1l1-1 20-13q21-13 22-14l1-1 3-2q2-2 3-3z" fill="#4c4c4c" stroke="#4c4c4c"/>
  <path d="m327 607h1q0 1 0 1h1l23 27q23 27 24 27t8 8 7 9h1v1h1v1h1v1l1 1 1 1v3h-1l-1-1h-1v-1h-1v-1h-1v-1h-1v-1h-1v-1q-1 0-5-4l-4-4v-1t-1 0v-1q-1-1-1-1 0-1-4-4-4-4-4-5t-4-3q-3-2-8-8-4-5-5-5t-3-3l-3-4q-1-1-1-1v-1t-1 0q-1-1-1-1v-1t-1 0v-1h-1v-1t-2-2q-2-1-4-4t-5-6-3-4v-1l-1-1q-1-1-2-2l-1-2 1-1h1v-1q0-1 1-1z" fill="#b7b7b7" stroke="#b7b7b7"/>
  <path d="m1018 350h6q7 0 8 0h3t-1 1-6 2l-5 2v-1h-3l-1-1q-1-1-2-1l-1-1h1l1-1z" fill="#989898" stroke="#989898"/>
  <path d="m835 108h1l2 1h3v1q0 1 1 1 1 1-8 3t-26 13q-17 10-17 11t-1 1q-1 1-71 48l-71 47v1h-1v1h-2v-1q0-1 1-1 2-1 2-2v-1h-1v1h-1v-1h-1v1h-1q-1 0-26 17l-25 16v-1q-1 0-1 0v1h-1q-1 1-3 2l-2 1t-82 54l-81 52-1 1-1 1h-1t-59 38l-59 38h-1l-1 1h-2l-2 1h-2v-1h1v-1h1v-1h1v-1h1v-1l1-1h1v-1l41-28q40-27 41-28l1-1h2v-1h1v-1h1l1-1 1-1h1l58-40q58-39 59-40h1l1-1 1-1h2v-1h1v-1l51-34q50-36 50-36h1q1 0 1 0v-1t1-1l3-2q4-2 4-3h1q1 0 1-1 0 0 1 0v-1h1q0-1 1-1h1l3-2q3 0 15-10 12-9 12-10t7-7 7-7 1 0v-1l65-43q64-42 65-43h10q9 0 13 1 3 1 4 4 2 4 3 4zm-181 121l-2 1q-1 0-1 0-1-1 2-2 3-2 3-1t-1 1-1 1z" fill="#3c3c3c" stroke="#3c3c3c"/>
  <path d="m884 323t1 1h-1t0 1q-1 1-1 1h-1t-35 26l-35 25h-1v1h-2v1h-1v1h-2l-1 1h-1l-1-1h1v-2h1l1-1 1-1h1l24-18q24-16 24-17h2v-1h1l12-8q12-8 13-9z" fill="#7c7c7c" stroke="#7c7c7c"/>
  <path d="m454 694v-1h1l1 1q0 1-1 2-2 2-2 2h-1l1 1q0 1 1 1v1t-1 1l-19 13q-19 13-22 13h-4v-1l-1-1v-1h1l1-1h-1l1-1h1v-2h-1v-1h-2l-1-1-1-1h-2v-1h1l2 1 6-1q5-1 10-3 5-4 7-4 3-1 12-8 10-6 11-7h1v-1q1 0 1 0z" fill="#474747" stroke="#474747"/>
  <path d="m623 219h1v1q0 1-1 2l-1 1h1v1l2-1q2-1 2 0v1q-1 0-1 0 0 1-1 1h-1q0 1-3 2-3 2-3 3t-2 2h-1t-3 1l-2 1h-1t-49 33l-49 33h-1v1h-2q0 1 0 1-1 0-1 1h-1q0 1 0 1h-1q-1 0-4 2l-3 2-1 1-1 1h-1v1h-1v1h-1l-1 1h-1v-1l1-1v-2h-1v-1h2v-1h1v-1h1l63-43q64-43 64-43t1-1z" fill="#5e5e5e" stroke="#5e5e5e"/>
  <path d="m840 188q4 0 4 2t-2 2q-3 0-4 1 0 2 1 3 2 2 2 3 1 1 3 1t2-2q1-2 4-2 2 0 2 2t-2 4-6 2-6-3q-3-3-4-6 0-3 0-5 2-1 6-2z" fill="#cbcbcb" stroke="#cbcbcb"/>
  <path d="m892 385v1t-29 20l-28 20h-1t-69 48l-69 48-1 1-1 1h-1l-2 1h-2v-1h-1l2-1h1v-2h1l1-1h1v-2q0-1 2-2 3 0 3-1 1-1 6-5 6-5 6-6t1-1q1-1 1-1 0-2 1-1 0 1 1 0t2-3 3-2 1-4-1-4q-1 0-1-1t2-1q1 1 3-2 1-2-2-2h-2v-1h2v-1h2v-1l21-15q21-14 24-16t3-3 19-14 21-15q2 0 3-1h2v1h1l1-1 1-1h1v-1h1v-1h2l14-9q13-9 14-9h2l2-1 2-1h2l6-4q6-2 8-2t3-1 8-1 7 1zm-167 104q0-1 0-1 1 0 1 0 0 1-1 1z" fill="#474747" stroke="#474747"/>
  <path d="m856 176q2 0 2 1 1 1 0 1-2 1-2 4t4 7q2 4 1 4-1 1-5-3t-4-8q0-3 1-4 1-2 3-2z" fill="#cbcbcb" stroke="#cbcbcb"/>
  <path d="m266 539l1-1 1 1h1q0 1 1 1 0 0 0 1h1l9 14q10 14 14 17 4 4 12 16 9 12 12 15 2 3 3 4l1 1v1h1v1h1l1 2q1 1 2 2l1 1v1q0 1 3 4t5 6 4 4q2 2 2 2v1h1v1h2v1h1v1l1 1v1h-2v-1h-1v-1h-1v-1h-1v2h-1v-1h-1l-1-1q-1 0-1 1l-1 1h-1q0-1 0-1-1 0-2-2 0-1-1-1t-11-13-13-14q-2 0-5-4-2-4-2-6t-3-5-19-27l-16-23v-1t-2-1-2-2 2-1q3 1 3 2 1 1 1 1z" fill="#474645" stroke="#474645"/>
  <path d="m547 356h1v-1h1l6 1q6 0 17 10 11 8 22 20 12 12 21 26 9 15 10 16 1 2 1 8v6h-1v1h-1v1h-1l-1 1-1 1h-2v-1h-1v-1h-2q-2 0-4-2-3-2-5-5-2-4-3-4t-1-1-5-5l-6-3-1-1-1-1h-1l-2 1-2 1h-1v1h-1v1h1v1l-1 1v1h2l1 2q0 2 1 3l1 1v3h-1v-1h-1v1t-1 0q-1-1-3-1-2-1-2 1 1 1 0 1-1 1-1 2l-1 2v1h-2v-1h-1v-1q-1 0-3-2-3-2-19-19l-16-16v-1q-1-2-5-9t-5-7-1-4l-1-5v-3q1-2 1-4 0-1 4-4l3-4 5-3q5-3 6-4h1l1-1h1z" fill="#d4d4d4" stroke="#d4d4d4"/>
  <path d="m708 255h4l3 1h2q2 2 3 2l1 1 1 1h1l1 1 1 1h1l14 14q14 12 17 16t4 5v1t1 1v16l1 2 1 2v3h-1v-1h-1v-1h-1l-1-1v-2h-1v-1h-1v-1t-3-3l-2-2-1-1v-1l-1-1-1-1v-1h-1v-1h-1v-1q0-1-8-9t-18-17l-9-8v-1q-1 0-1 0 0-1-2-2l-2-2h-2v-1h-1q0-1 0-2v-1l1-2q1-2 2-3z" fill="#acacac" stroke="#acacac"/>
  <path d="m556 548v1q0 1 0 2v1q-1 0-1 1h-1q0 1-7 5l-7 6h-1v1h-1v1h-2v1h-1q-1 1-7 4l-5 4v-1q-1-1-1-2h1v-1h1v-1h1l1-1 1-1h1l14-10q13-10 14-10z" fill="#4f4f4f" stroke="#4f4f4f"/>
  <path d="m577 278v-1q1 0 1 1v1l-1 1v1h-1q0 1 0 1-1 0-44 30l-43 28-1 1-1 1h-2v1h-1v1h-1l-1-1-1-1h1v-1l1-1h1v-1l1-1h1v-1h1v-1l43-28q44-30 45-30h1t1 0z" fill="#424242" stroke="#424242"/>
  <path d="m683 275l11 1q10 2 20 8t21 18q11 11 12 12 0 1 2 2 1 2 4 5t3 5q0 1 1 1t5 7q4 6 4 8v1h1v1h1v2h1v2q-1 1-1 4 0 4-2 6 0 1-9 7l-9 6q-1 1-10 7l-10 6v1h-1v1h-1l-1 1-1 1h-1v1h-1v-3h2v-1h1v-1h1v-1h1v-1h1t4-4q4-3 4-4t1-1 2-3q1-2 1-7 2-5 2-11 0-5-4-16t-4-12q-1 0-3-4-3-4-5-6-3-3-3-4-1-1-5-5-5-5-6-5 0-1-10-8-8-7-14-8l-6-2t-2-1l-1-1h-2v-3h5q4-1 2-1-1 0-1-1z" fill="#909090" stroke="#909090"/>
  <path d="m679 282h3l6 2q6 1 14 8 10 7 10 8 1 0 6 5 4 4 5 5 0 1 3 4 2 2 5 6 2 4 3 4 0 1 4 12t4 16q0 6-2 11 0 5-1 7-1 3-2 3t-1 1-4 4q-4 4-4 4h-1v1h-1v1h-1v1h-1v1h-2v3q-1 1-16 11l-16 11q-1 1-1 1h-1t0 1l-1 1h-1q-1 0-2 1l-1 1q-1 0-22 15l-21 15h-1l-1 1-1 1h-1v1h-1v1h-2v1h-1l-1 1h-1v1h-1v1h-1q-1 0-6 4l-6 4q-1 0-2-3-1-2-4-2-4 1-6 0-3-1-8 0l-4 1h-1l-2-1-2-1h-2l3-1 2-1v-2q0-2 2-4l3-2h-1v-1l-1-1-1-2t-1-2l-1-1v-2h-1v-1h-1v-1l-1-1q-1-1-1-3l-1-2h-2v-1l1-1v-1h-1v-1h1v-1h1l2-1 2-1h1l1 1 1 1 6 3q5 4 5 5t1 1 3 4q2 3 5 5 2 2 4 2h2v1h1v1h2l1-1 1-1h1v-1h1v-1h1v-6q0-6-1-8-1-1-10-16-9-14-21-26-11-12-22-20-11-10-17-10l-6-1v-1h8l5-2q4-2 13-7t9-6q1-1 6-3 6-2 18-11 14-9 14-10t2-1q2-1 2-2 1 0 10-6 8-6 11-9t14-8 13-6 5-1z" fill="#b8b8b8" stroke="#b8b8b8"/>
  <path d="m603 300h1v1q0 1-17 13l-17 11q-1 1-1 1h-1t0 1h-1q-1 1-3 2l-1 1-1 1q-1 1-22 14l-20 13-1 1h-1v2h-1v1h-1l-1 1h-1v-2h1v-1h1v-2h2v-2h1l35-24q35-22 36-23 0 0 1-1h1v-1h1q1 0 1-1h1l1-1q0-1 1-1h1t0-1h2q0-1 0-1h1t1-1q0-1 1-1z" fill="#7e7e7e" stroke="#7e7e7e"/>
  <path d="m626 249t1 1q0 1-1 2-2 1-4 4-2 2-4 4-3 3-3 4-1 2-3 4-2 1-2 2t0 3q-2 2-4 3-3 2-3 3-1 1-2 2-2 1-2 3 0 1-1 1-2 0-3 3t-3 3q-1 1-1 1-1 1-2 2t-1 4q-1 2-2 2t-8 6q-6 6-10 10l-4 3h-1v1h-2v2h-2v1h-1v3q-1 0-20 14l-20 13v1h-2v1h-1v1h-1v2h1l1-1 1-1h1v2h-2v1l-4 3q-4 4-6 6 0 3 0 10 0 6 0 7v1t0 1h1v1l1 1v1h1v1h1l5 10q6 9 7 10 0 1 1 2v1l1 4q2 4 2 4l9 10q9 11 9 11v1h1v1h1v1h1v1h1v1h-3q-1 0-2 0t-3 0q-3 1-5 4-1 4-4 4-2 1-2 3-1 2-3 3t-4 3q-2 3-3 5t-3 2q-2 1-4 3-1 1-2 3 0 2-1 2t-1-1-3 3-4 4-1 2q-1 2-2 2t-2 2q-2 2-3 4-1 3-3 3 0 0-2 1-2 0-2 1t-2 1q-1 1-1 2 0 2-2 2t-2 1q-1 1-2 1-1 1-1 2 0 2-3 3-2 1-2 2-1 1-3 3-2 1-3 3t-2 2q-1 1-1 1-1 1-2 1-1 1 0 2 0 1-2 1-1 0-4 3-3 2-3 3-1 1-5 4-4 2-4 4 0 1 0 0 1 0 1 0 1 1-3 2-3 2-4 4 0 2-1 1t-1 1q-1 3-3 3t-2 1-1 1q-2 1-1 1t1 1-2 2q-3 1-6 5-4 4-5 4-2 0-5 5-3 4-4 4t-1 1-2 2q-2 0-1 1t0 1q-2 0-2 2 0 1-2 1-1 1-4 4t-4 4q0 1-2 3-2 1-5 3-2 3-6 3-4 2-7 0-2-2-6-7-3-5-4-5t-12-14l-11-14q-1-1-1-1v-1t-1 0q-1-1-1-2v-1h-1v-1q-1 0-1-1-1-1-18-24-16-24-22-33-4-9-5-14-1-4 1-6 2-3 38-28l37-26h1l1-1 1-1h1v-1h1v-1l58-38q57-38 57-38h1v-1h1v-1h2l1-1 1-1 43-28q43-30 44-30 0 0 1 0v-1h1l1-1h1l1-1 1-1 22-14q21-14 22-15zm-142 212v-1l-1-1-1-1 1-4q1-4 5-5 3-1 3 0-1 2-3 4-2 3 2 8 4 6 5 6t1 1q-1 2-3 2t-5-4q-4-5-4-5zm-24 18l-2-3v-4q0-4 3-5 2-1 5-1 4 0 6 2t1 4q0 2-3 4-4 2-3 3 0 1 4 1 3-1 5-1t0 2q-1 3-4 3-4 2-7 0t-5-5zm56-7t0-1 0 1zm-77 18v-2h-1q-1 0-2 1 0 1-3 1h-3l2-3q3-3 6-4 4-1 4 7 1 9 5 7 4-3 6-2t-3 5q-6 4-9 3t-3-6 1-7zm-20 26h1v-1l1-1 1-1v-1l-1-1-1-1-3-5q-3-4-3-5 0-2 2-1 2 0 6 6t3 9q-1 4-3 5t-6 1-9-7-3-7q3-1 7 4 4 6 5 6 2 0 3 0zm-35 11l-1-1-1-1v-3l3-3q2-3 5-3 2-2 2 0t-2 3-2 4 4 7 3 6q0 2-2 1-3-1-3-2t-1-1-1-2q-1-2-2-2t-2-1q0-1 0-2zm78-6t1 0q0 1-1 1 0 0 0-1zm-88 24v-2l2 1q2 0 1 3t-2 5q-1 0-6 0t-8-4-3-8 2-5 6-2q4 0 4 2t-4 3q-4 0-3 3t3 5 4 2q3 0 4-3z" fill="#626262" stroke="#626262"/>
  <path d="m256 755h1v1h-1v1l-1 1-1 1v1l1 1v1q-1 0-17 12-17 12-20 12-3 2-9-6l-6-8v-1h-1v-1h-1v-1h-1v-1h-1v-1h-1v-2h1l1 1 1 1v1h2l1 1h1v1l1 1v-2h1l2 4q2 3 6 5 4 0 22-11 19-12 19-12z" fill="#6d6b64" stroke="#6d6b64"/>
  <path d="m876 371h1v1l-1 1v3h2l2-1 1-1h5q4 0 8 2 4 0 7 1h3q0 1-6 4l-6 4q0-1-2-1-1 0-5 0-4 2-5 0 0-1-2 0-2 2-2 2-1 1-2 1t-1-1q-1-1-7 2l-6 4h-2l-2 1-2 1h-2v-1h1v-1h2v-1h1v-1h2v-1h1v-1l5-4q6-4 5-5 0-1 0-2l3-3q4-2 4-3zm-4 6q0-1 0-1 0 1 0 1z" fill="#545454" stroke="#545454"/>
  <path d="m972 248v7h1v1h2l3-3q2-3 6-2t6 1q1-1 2 1 0 2 1 4l1 2v1h6v-1h1v1q-1 1-1 4-1 3-4 5l-2 2h-1v1h-1l-1 1-1 1h-1v1h-1v1h-3 1v-1l1-2q1-2 0-5l-1-2v-1h-1v-1h-1t-1-1-5 1-4-1q0-2-1-2t-1 1v1h-2v-1h-2v-1l1-1 1-1v-4l1-3q1-4 1-4z" fill="#adadad" stroke="#adadad"/>
  <path d="m821 199q1-1 6 5 5 4 6 7 1 2-1 3-1 0-1-1t-1-1-1-1q-1-1-2-2-2-1-3-3t-2-4q-2-3-1-3z" fill="#cacaca" stroke="#cacaca"/>
  <path d="m866 383l-7 5v1h-1v1h-2v1h-1v1h-2v1h-1v1q-1 0-14 9l-14 9h-2v1h-1v1h-1l-1 1-1 1h-1v-1h-1v-1h2v-1h1v-1h1l1-1 1-1h1l12-9q11-8 12-9 0-1 9-6 8-6 9-6l1-2q2 0 2-1h1q0 1 2 0t2 0q-1 1-7 6z" fill="#6c6c6c" stroke="#6c6c6c"/>
 </g>
</svg>
